<svg width="750" height="500" viewBox="0 0 750 500" fill="none" xmlns="http://www.w3.org/2000/svg">
<g clip-path="url(#clip0_338_285)">
<path d="M0 500H750V0H0V500Z" fill="url(#paint0_linear_338_285)"/>
<mask id="mask0_338_285" style="mask-type:luminance" maskUnits="userSpaceOnUse" x="0" y="0" width="750" height="500">
<path d="M0 500L750 500L750 0L0 0L0 500Z" fill="white"/>
</mask>
<g mask="url(#mask0_338_285)">
<path opacity="0.54" d="M182.959 211.316C182.85 211.018 182.744 210.719 182.622 210.427C180.73 205.907 177.459 202.117 173.544 199.134C173.682 197.473 173.549 195.785 173.15 194.165C172.749 192.563 172.081 191.037 171.143 189.673C167.479 184.35 160.006 182.047 153.975 184.36C156.4 176.808 150.436 167.803 142.544 167.082C134.906 166.386 127.662 173.64 128.118 181.238C127.745 177.763 124.901 175.107 122.03 173.057C115.308 168.255 109.628 172.627 108.318 173.151C106.389 163.815 97.578 156.667 84.66 157.044C71.752 157.414 63.554 165.974 62.952 174.464C59.87 170.073 53.182 168.719 48.633 171.567C44.099 174.425 42.397 181.033 45.021 185.717C37.344 178.427 25.395 176.016 15.496 179.757C5.58803 183.496 -1.77797 193.211 -2.71297 203.757C-8.87697 201.864 -20.288 203.902 -26.496 211.315L182.959 211.316Z" fill="url(#paint1_linear_338_285)"/>
</g>
<mask id="mask1_338_285" style="mask-type:luminance" maskUnits="userSpaceOnUse" x="0" y="0" width="750" height="500">
<path d="M0 500L750 500L750 0L0 0L0 500Z" fill="white"/>
</mask>
<g mask="url(#mask1_338_285)">
<path opacity="0.54" d="M367.445 80.586C364.403 78.837 361.057 77.337 357.752 76.725C352.198 75.697 346.229 77.166 346.229 77.166C342.246 73.61 328.009 70.474 318.528 77.242C315.994 70.147 305.837 67.288 300.026 72.036C302.06 62.041 294.389 51.123 284.348 49.722C274.301 48.327 264.01 56.736 263.295 66.916C263.702 60.861 255.962 56.027 250.761 59.089C249.843 50.268 241.179 43.005 232.393 43.696C223.619 44.399 216.215 52.941 216.715 61.797C213.798 56.602 206.674 54.307 201.31 56.817C200.752 57.079 200.229 57.386 199.729 57.735C198.515 58.589 197.48 59.682 196.667 60.931C189.938 58.944 178.711 60.658 175.637 70.112C175.021 71.995 174.841 73.86 174.974 75.551C175.032 76.271 175.148 76.957 175.317 77.602C173.58 77.596 171.877 78.729 171.011 80.275C170.955 80.376 170.912 80.483 170.862 80.586H367.445Z" fill="url(#paint2_linear_338_285)"/>
</g>
<mask id="mask2_338_285" style="mask-type:luminance" maskUnits="userSpaceOnUse" x="0" y="0" width="750" height="500">
<path d="M0 500L750 500L750 0L0 0L0 500Z" fill="white"/>
</mask>
<g mask="url(#mask2_338_285)">
<g opacity="0.54">
<path d="M698.232 155.204C694.653 143.517 684.204 134.664 671.27 133.762C666.544 133.432 661.981 134.208 657.851 135.856C654.972 131.111 648.843 124.167 636.897 122.035C635.532 121.783 634.087 121.647 632.585 121.626C629.473 110.047 619.308 101.163 606.674 100.282C593.477 99.362 581.742 107.464 577.477 119.322C575.764 118.361 573.782 117.646 571.521 117.32C569.33 117.011 567.446 117.132 565.833 117.5C563.902 114.336 560.916 111.807 557.374 110.706C552.441 109.208 546.851 110.573 542.918 113.87C540.103 106.652 533.321 101.322 525.077 100.747C515.158 100.055 506.391 106.477 503.754 115.671C495.06 112.071 488.346 115.426 484.453 119.182C479.49 123.97 476.908 133.925 479.09 140.389C472.839 138.655 467.838 142.61 468.955 149.012C454.922 140.772 441.57 147.583 434.297 153.087C434.198 152.948 434.088 152.808 433.977 152.668C426.946 146.65 417.766 150.344 416.42 155.143C405.905 150.946 395.477 151.256 384.869 155.203L698.232 155.204Z" fill="url(#paint3_linear_338_285)"/>
</g>
</g>
<mask id="mask3_338_285" style="mask-type:luminance" maskUnits="userSpaceOnUse" x="0" y="0" width="750" height="500">
<path d="M0 500L750 500L750 0L0 0L0 500Z" fill="white"/>
</mask>
<g mask="url(#mask3_338_285)">
<path d="M742.317 365.963C724.26 356.047 710.894 338.783 691.92 330.469C682.752 326.451 668.795 320.126 658.795 319.622C642.32 318.793 641.854 324.055 626.071 315.53C616.176 310.186 607.036 303.621 597.28 298.039C590.116 293.94 579.767 291.277 573.563 286.756C566.774 281.809 561.248 267.002 551.794 265.286C543.279 263.74 534.351 275.302 525.426 276.215C504.56 278.35 501.164 278.763 488.146 266.454C474.544 253.593 464.274 235.175 450.624 233.166C443.916 232.179 436.253 226.075 431.089 222.473C421.915 216.074 418.491 214.714 409.199 217.938C401.379 220.651 395.021 229.315 386.611 231.752C368.805 236.912 346.702 234.019 329.461 242.148C313.776 249.544 306.614 270.898 288.017 273.542C279.518 274.75 269.336 266.732 260.385 266.333C248.257 265.792 244.865 269.726 233.483 265.13C215.942 258.047 199.226 245.897 182.903 236.806C174.475 232.112 171.135 227.178 163.962 220.321C153.234 210.065 152.914 211.332 140.715 216.392C127.43 221.902 126.782 224.898 112.949 219.637C102.516 215.669 96.909 211.716 89.591 203.995C77.376 191.108 76.947 194.585 60.559 189.087C53.485 186.713 48.678 182.701 42.796 177.827C37.202 173.192 26.033 160.588 17.414 161.093C11.52 161.439 1.39602 171.863 -5.21498 174.8C-14.213 178.797 -25.072 179.523 -35.803 180.607V386.846C-35.365 387.221 -34.927 387.596 -34.49 387.971C-22.724 398.05 -7.64798 417.234 6.81502 423.354C27.244 431.997 66.169 423.116 88.831 422.269C202.171 418.032 315.781 407.045 429.085 404.966C539.424 402.941 650.487 408.846 760.904 411.341V371.862C753.725 369.795 746.165 368.076 742.317 365.963Z" fill="url(#paint4_linear_338_285)"/>
</g>
<mask id="mask4_338_285" style="mask-type:luminance" maskUnits="userSpaceOnUse" x="0" y="0" width="750" height="500">
<path d="M0 500L750 500L750 0L0 0L0 500Z" fill="white"/>
</mask>
<g mask="url(#mask4_338_285)">
<path d="M789.079 506.255V183.626C787.556 182.761 785.91 182.14 784.094 181.869C771.864 180.046 774.646 187.81 762.364 177.467C756.284 172.347 750.647 165.982 743.898 161.841C731.821 154.43 731.845 157.904 721.346 164.452C707.285 173.222 692.079 184.086 676.83 190.395C659.949 197.379 644.713 194.564 630.993 208.359C624.731 214.655 621.315 220.331 614.035 224.789C608.338 228.278 601.207 230.55 595.232 234.071C581.821 241.973 564.305 258.23 548.519 260.38C537.813 261.838 535.09 256.162 525.994 261.463C516.776 266.834 508.922 279.086 501.163 286.462C488.549 298.454 474.018 307.581 459.687 317.547C428.381 339.318 396.311 354.104 361.7 370.447C346.964 377.405 321.142 383.892 309.229 395.223C301.757 402.33 297.437 417.857 292.923 427.147C280.109 453.516 267.296 479.886 254.482 506.255H789.079Z" fill="url(#paint5_linear_338_285)"/>
</g>
<mask id="mask5_338_285" style="mask-type:luminance" maskUnits="userSpaceOnUse" x="0" y="0" width="750" height="500">
<path d="M0 500L750 500L750 0L0 0L0 500Z" fill="white"/>
</mask>
<g mask="url(#mask5_338_285)">
<path d="M784.247 393.662C775.832 390.567 768.044 385.334 759.497 382.645C756.932 381.838 753.106 385.328 750.991 384.417C748.602 383.389 748.669 379.005 746.245 377.659C733.994 370.857 719.665 363.296 709.161 353.323C704.385 348.789 700.93 341.517 695.748 337.74C684.488 329.532 684.268 336.134 676.53 336.207C673.622 336.234 671.619 339.017 668.13 338.996C668.069 338.996 659.453 335.389 658.628 334.764C654.482 331.619 652.396 327.66 648.687 322.944C643.989 316.97 637.296 305.49 630.772 301.652C629.402 300.846 624.893 305.346 622.823 304.439C620.431 303.391 619.261 299.675 616.892 298.347C603.293 290.721 592.085 283.32 580.563 273.18C575.934 269.106 569.438 263.048 563.824 262.811C559.712 262.637 549.52 272.829 546.016 271.995C542.047 271.05 534.074 265.439 529.942 262.731C522.774 258.033 517.782 255.962 509.861 252.69C502.673 249.722 495.495 242.571 487.89 242.497C477.782 242.399 478.357 245.364 470.89 248.091C456.631 253.299 450.694 251.217 439.114 263.583C431.239 271.992 417.311 290.411 407.019 295.296C401.464 297.933 393.731 294.426 387.767 296.308C382.038 298.115 376.273 304.514 370.824 307.479C362.017 312.271 356.811 313.304 348.755 320.719C345.374 323.831 338.326 333.52 334.574 335.246C325.959 339.208 318.04 331.492 311.744 331.021C306.283 330.613 297.054 336.607 291.531 335.447C278.359 332.682 262.291 309.713 254.326 302.294C222.208 272.38 220.665 287.151 207.506 280.762C196.614 275.474 184.253 258.009 176.142 249.713C169.864 243.292 169.388 239.195 160.847 238.247C153.492 237.43 146.84 242.971 139.946 240.644C127.052 236.291 113.342 218.715 102.27 210.469C84.783 197.446 79.465 190.397 62.034 204.17C50.19 213.528 17.891 243.635 -3.95299 254.186C-11.537 257.849 -20.626 258.455 -28.422 261.671C-30.523 262.538 -33.176 264.357 -35.8 266.141V457.864C-30.612 457.723 -25.425 457.582 -20.237 457.441C121.467 453.585 263.472 456.657 405.214 456.98C528.923 457.262 652.614 458.83 776.315 458.5C778.288 458.495 783.274 458.994 789.079 459.46V395.243C787.514 394.782 785.906 394.272 784.247 393.662Z" fill="url(#paint6_linear_338_285)"/>
</g>
<mask id="mask6_338_285" style="mask-type:luminance" maskUnits="userSpaceOnUse" x="0" y="0" width="750" height="500">
<path d="M0 500L750 500L750 0L0 0L0 500Z" fill="white"/>
</mask>
<g mask="url(#mask6_338_285)">
<path d="M715.948 506.255C704.32 485.166 692.813 462.366 671.423 452.729C710.78 451.946 749.863 454.284 789.079 456.718V341.94C771.25 335.17 734.356 320.523 730.372 319.352C710.372 313.474 710.561 307.783 690.888 308.534C670.987 309.294 661.594 278.453 651.908 287.202C641.931 296.214 638.846 302.668 626.124 308.245C615.632 312.844 612.701 313.991 602.545 311.078C587.981 306.9 587.855 299.152 574.928 306.029C566.543 310.489 563.848 320.866 556.504 325.999C551.107 329.771 542.466 331.28 536.381 334.643C519.69 343.869 501.612 362.117 482.264 362.704C476.984 362.864 471.753 360.039 466.5 360.484C460.547 360.989 454.926 365.264 448.987 365.969C439.028 367.151 438.451 366.759 429.244 361.657C420.56 356.845 413.942 347.648 396.872 337.513C387.396 331.887 378.056 323.114 369.256 320.943C360.365 318.749 348.638 329.484 345.592 328.836C338.281 327.279 333.879 321.172 327.573 317.882C318.137 312.96 312.284 304.434 302.679 305.957C293.646 307.389 286.054 316.903 279.631 322.385C276.578 324.99 271.038 331.642 267.434 332.433C263.063 333.393 259.316 328.757 254.916 329.413C247.418 330.531 241.518 338.52 235.98 344.492C222.43 359.103 207.012 374.221 186.617 368.368C170.563 363.76 171.085 355.018 157.063 364.888C150.236 369.693 147.144 378.697 140.575 383.288C134.128 387.794 123.869 390.043 116.695 394.332C107.537 399.807 98.941 406.29 89.678 411.584C70.621 422.473 56.442 415.77 36.654 422.663C13.363 430.775 0.132975 440.382 -19.463 455.731C-24.86 459.958 -30.272 463.417 -35.801 466.463V506.255H715.948Z" fill="url(#paint7_linear_338_285)"/>
</g>
<mask id="mask7_338_285" style="mask-type:luminance" maskUnits="userSpaceOnUse" x="0" y="0" width="750" height="500">
<path d="M0 500L750 500L750 0L0 0L0 500Z" fill="white"/>
</mask>
<g mask="url(#mask7_338_285)">
<path d="M789.079 324.606C770.721 314.356 751.169 303.531 737.604 289.335C719.552 270.443 693.935 271.255 669.805 266.52C657.096 264.026 648.139 251.068 636.893 248.283C626.589 245.731 614.682 259.177 607.239 265.529C603.693 268.555 571.31 292.902 567.168 293.498C562.218 294.21 557.578 288.569 552.537 289.783C541.08 292.542 531.911 306.537 523.223 305.635C514.521 304.731 509.898 299.86 504.808 299.776C499.217 299.684 493.233 304.569 484.67 308.032C473.114 312.705 436.183 342.988 424.863 349.889C414.891 355.968 405.322 362.789 393.942 363.138C379.176 363.591 374.217 362.339 359.292 367.537C333.395 376.557 315.386 393.202 293.754 410.146C251.847 427.238 209.94 444.329 168.033 461.421C206.821 460.649 245.608 459.877 284.396 459.106C393.073 456.944 501.821 453.379 610.518 452.617C669.808 452.202 729.597 457.312 789.078 461.838L789.079 324.606Z" fill="url(#paint8_linear_338_285)"/>
</g>
<mask id="mask8_338_285" style="mask-type:luminance" maskUnits="userSpaceOnUse" x="0" y="0" width="750" height="500">
<path d="M0 500L750 500L750 0L0 0L0 500Z" fill="white"/>
</mask>
<g mask="url(#mask8_338_285)">
<path opacity="0.39" d="M777.086 301.484C777.167 300.824 777.23 300.161 777.254 299.496C777.398 295.503 776.487 291.497 774.165 288.303C771.129 284.134 766.394 282.067 761.913 281.435C762.062 280.749 762.146 280.038 762.146 279.308C762.146 273.797 757.678 269.329 752.167 269.329C749.937 269.329 747.885 270.069 746.224 271.305C742.596 260.987 733.804 254.551 722.115 254.551C710.749 254.551 700.345 259.622 697.473 270.527C692.992 266.985 687.531 268.195 685.886 273.424C686.17 267.867 680.009 259.868 669.218 259.868C663.657 259.868 656.407 262.349 654.262 269.8C652.168 265.037 648.444 263.976 644.032 264.385C639.625 264.8 636.182 269.974 636.146 273.697C631.743 271.121 626.836 269.094 621.728 269.081C616.626 269.063 612.392 270.561 608.892 274.284C605.12 278.286 604.99 284.868 606.983 289.933C601.931 288.794 598.096 292.139 599.233 297.197C593.199 294.364 589.497 294.283 583.002 295.713C579.077 296.578 575.357 298.617 572.569 301.484H777.086Z" fill="url(#paint9_linear_338_285)"/>
</g>
<mask id="mask9_338_285" style="mask-type:luminance" maskUnits="userSpaceOnUse" x="0" y="0" width="750" height="500">
<path d="M0 500L750 500L750 0L0 0L0 500Z" fill="white"/>
</mask>
<g mask="url(#mask9_338_285)">
<path d="M757.566 283.672C752.16 279.521 742.334 266.492 735.821 265.052C730.124 263.793 721.532 271.166 716.068 273.506C711.022 275.667 707.75 277.355 704.636 279.531L703.751 277.187L703.592 276.785L703.883 277.124L704.285 277.425L702.736 272.926L701.582 276.924L701.972 276.565L700.661 279.444L701.47 278.89L700.835 280.021L701.238 279.66L700.079 282.091L701.168 280.67L700.533 282.726C700.43 282.813 700.331 282.895 700.227 282.983L699.422 280.542L700.184 281.701L698.861 277.336L699.654 278.452L698.869 276.412L699.571 277.036L698.469 273.705L698.897 274.156L699.318 274.595L697.718 268.249L696.269 274.223L697.005 273.548L696.045 276.986L696.655 276.048L695.642 279.874L694.416 276.609L692.933 280.6L693.686 280.171L692.703 282.464L693.327 281.852L691.895 285.38L692.998 284.101L692.33 286.075L692.929 285.752L691.808 287.352L692.816 286.912L691.361 289.058L692.425 288.305L691.39 290.305L692.169 289.782L691.429 291.046C689.417 292.904 687.289 294.8 685.191 296.456L683.475 290.788L684.381 292.113L682.956 287.634L684.049 288.676L681.898 280.959L679.835 287.275L677.033 278.311L674.457 286.759L675.766 285.826L674.142 290.448L673.006 286.722L670.855 293.967L671.948 293.165L670.523 297.332L671.429 296.206L669.351 302.614L670.951 300.267L670.285 302.73C669.045 302.906 667.832 303.092 666.618 303.404L665.461 299.703L666.401 300.986L665.47 298.642L666.302 299.361L664.997 295.535L665.504 296.054L666.002 296.559L664.107 289.272L662.39 296.119L663.262 295.347L662.124 299.287L662.847 298.214L661.188 304.272L662.465 302.04L661.692 305.422L662.385 304.84L662.169 305.301C661.144 305.947 660.094 306.767 659.002 307.839C658.24 308.586 657.478 309.334 656.716 310.081L655.721 307.581L656.539 308.619L655.12 304.744L655.971 305.744L655.128 303.929L655.881 304.494L654.7 301.534L655.159 301.94L655.61 302.335L653.894 296.707L652.34 301.943L653.13 301.363L652.1 304.374L652.754 303.56L651.472 307.514L651.062 306.449L651.564 306.895L650.777 304.515L651.083 304.837L651.383 305.15L650.24 300.616L649.205 304.883L649.731 304.401L649.045 306.857L649.481 306.187L648.875 308.475L647.77 305.235L648.277 305.754L648.775 306.259L646.88 298.972L645.163 305.819L646.035 305.048L644.897 308.988L645.62 307.915L643.961 313.974L645.238 311.742L644.465 315.124L645.158 314.542L643.86 317.318L645.026 316.514L643.441 320.015L641.985 316.398L640.462 320.197L641.236 319.793L640.227 321.974L640.868 321.395L639.397 324.752L640.53 323.539L639.844 325.418L640.459 325.115L639.308 326.634L640.216 326.273C639.686 326.793 639.157 327.312 638.628 327.831C600.364 353.427 562.101 379.024 523.837 404.62C569.619 406.594 615.402 408.569 661.184 410.543C694.506 411.98 727.721 413.544 761.088 415.889C761.831 415.941 762.527 416.008 763.183 416.081V286.82C761.074 285.824 759.077 284.832 757.566 283.672ZM656.595 310.193C656.423 310.362 656.251 310.53 656.079 310.699L655.454 309.015L656.595 310.193ZM643.191 321.723L643.519 321.916L643.443 322.136L643.191 321.723ZM643.686 322.015L643.929 322.158L643.795 321.903L644.275 321.407L643.775 322.681L643.492 322.216L643.686 322.015ZM648.94 311.668L649.12 311.539L648.991 311.832L648.94 311.668ZM649.106 310.518L649.069 310.424L649.2 310.31L649.106 310.518ZM651.455 309.395L651.704 309.774L651.626 309.914L651.455 309.395ZM651.898 310.741L651.785 310.398L652.214 310.154L651.898 310.741ZM651.31 310.668L651.346 310.648L651.709 311.095L651.539 311.411L651.31 310.668ZM651.805 311.977L651.752 312.106L651.732 312.042L651.805 311.977ZM652.406 306.49L651.706 309.077L652.333 308.64L651.806 309.588L651.34 308.052L651.529 307.775L651.619 307.902L651.555 307.736L652.406 306.49ZM651.429 307.632L651.318 307.975L651.054 307.104L651.429 307.632ZM649.248 308.567L648.92 310.051L648.714 309.533L649.007 309.003L649.071 309.059L649.035 308.953L649.248 308.567ZM648.783 308.808L648.64 309.347L648.24 308.339L648.783 308.808ZM648.521 309.796L648.478 309.96L648.548 309.833L648.871 310.273L648.782 310.675L649.016 310.471L649.085 310.565L648.796 311.205L648.231 309.4L648.521 309.796ZM643.221 320.265L643.663 320.567L643.469 320.086L644.571 318.889L643.632 321.592L642.771 319.954L643.221 320.265ZM643.183 322.321L643.723 322.812L643.717 322.826C643.651 322.891 643.585 322.955 643.519 323.02L643.183 322.321ZM679.695 292.971L679.478 292.393L679.777 292.107L679.957 292.313L679.695 292.971ZM679.994 291.9L680.2 291.703L680.064 292.045L679.994 291.9ZM680.108 290.73L679.759 291.406L679.53 290.924L680.019 290.664L680.108 290.73ZM679.376 290.602L679.077 289.973L679.512 290.292L679.376 290.602ZM679.538 291.833L679.382 292.135L679.064 291.289L679.538 291.833ZM674.57 294.105L674.501 294.352L674.463 294.257L674.57 294.105ZM684.954 296.639C684.795 296.764 684.636 296.884 684.477 297.005L683.952 294.95L684.954 296.639ZM679.128 286.762L679.809 287.346L679.523 288.223L680.147 287.813L680.782 287.39L679.806 289.621L678.367 286.105L679.128 286.762ZM675.142 289.367L674.448 291.451L674.171 290.541L675.142 289.367ZM666.122 303.377L666.209 303.505C666.196 303.509 666.183 303.513 666.17 303.517L666.122 303.377ZM704.565 279.58C704.513 279.616 704.461 279.653 704.41 279.689L703.817 278.477L704.565 279.58ZM703.997 279.87L704.064 279.941C704.057 279.946 704.051 279.951 704.044 279.956L703.997 279.87ZM695.628 280.656L695.992 280.921L695.831 281.649L695.477 280.928L695.628 280.656ZM695.593 282.179L695.699 282.245L695.68 282.331L695.593 282.179ZM695.746 282.275L695.991 282.429L695.878 282.68L695.68 282.333L695.746 282.275ZM696.098 282.193L696.021 282.036L696.266 281.823L696.098 282.193ZM695.586 282.805L695.75 282.964L695.704 283.066L695.586 282.805ZM696.154 283.542L696.037 283.809L695.975 283.671L696.154 283.542ZM699.992 283.186C699.86 283.299 699.725 283.418 699.592 283.535L699.175 282.179L699.992 283.186ZM696.333 279.382L696.009 280.848L695.812 280.324L696.333 279.382ZM695.465 280.537L695.402 280.775L695.184 280.331L695.465 280.537Z" fill="url(#paint10_linear_338_285)"/>
</g>
<mask id="mask10_338_285" style="mask-type:luminance" maskUnits="userSpaceOnUse" x="0" y="0" width="750" height="500">
<path d="M0 500L750 500L750 0L0 0L0 500Z" fill="white"/>
</mask>
<g mask="url(#mask10_338_285)">
<path d="M789.079 506.255V420.347C787.206 419.46 785.386 418.562 783.679 417.62C774.487 412.546 771.51 409.722 764.481 402.036C757.376 394.266 757.834 393.263 749.37 394.681C737.056 396.743 739.343 403.541 726.537 399.282C717.74 396.357 714.131 390.653 708.519 384.105C705.671 380.782 703.708 375.91 700.006 373.371C693.94 369.211 694.69 371.82 689.852 370.029C688.729 369.614 686.462 372.485 685.338 372.084C683.198 371.321 682.14 367.824 679.964 367.064C678.769 366.647 675.64 364.305 674.462 363.571C666.503 358.606 657.064 355.968 648.953 351.244C642.475 347.471 632.894 336.088 625.791 335.173C618.923 334.289 613.914 342.79 606.567 342.719C600.028 342.656 595.556 335.114 590.182 330.344C583.874 324.745 579.211 318.841 571.425 320.351C561.549 322.267 564.174 331.475 554.518 326.243C543.529 320.288 551.045 315.738 537.903 318.54C531.117 319.987 524.741 325.115 518.312 327.653C509.828 331.002 503.928 334.176 498.45 337.917L497.564 334.75L499.111 336.288L496.066 323.812L492.705 336.367L493.588 335.568L494.487 334.747L492.172 341.279L493.647 340.165L492.892 341.983C492.68 342.147 492.468 342.313 492.255 342.48L490.034 335.388L491.64 337.561L489.112 329.895L491.05 331.53L487.235 318.263L483.024 331.614L484.131 330.765L485.257 329.891L482.357 336.837L484.205 335.652L482.259 339.63L480.873 336.406L481.604 337.168L479.439 329.357L476.533 337.555L477.288 337.068L477.835 336.487L477.538 337.214L475.632 342.1L477.416 339.644L475.115 344.134L477.078 342.244L474.763 346.291L475.81 345.228L474.59 348.129L471.335 337.808L467.52 351.075L469.458 349.44L466.93 357.106L467.853 355.857L466.029 360.955L466.591 360.596L466.847 360.327L466.542 361.301L466.266 362.002L465.284 358.188L466.107 359.544L464.811 354.762L465.804 355.782L463.848 347.507L461.689 355.835L462.256 355.305L462.834 354.76L461.347 359.093L462.294 358.354L461.507 360.311L459.237 351.49L460.319 353.271L458.616 346.987L459.922 348.328L457.352 337.452L454.515 348.396L455.261 347.7L456.02 346.984L454.066 352.678L455.311 351.707L453.918 355.173L455.325 353.349L453.096 360.459L451.547 356.475L452.654 357.682L450.911 353.425L452.247 354.333L449.617 346.966L446.714 354.379L447.477 353.907L448.253 353.422L446.254 357.279L447.528 356.621L446.102 358.969L447.541 357.733L445.14 362.803L446.523 361.511L444.564 365.302L446.972 363.511L444.005 369.687L445.772 368.203L444.051 370.997L445.863 369.622L444.345 372.126L442.085 366.721L443.222 367.873L441.432 363.809L442.804 364.676L440.103 357.642L437.122 364.72L437.906 364.27L438.704 363.807L436.651 367.489L437.959 366.861L436.495 369.102L437.973 367.922L435.507 372.762L436.927 371.528L434.915 375.148L437.389 373.438L435.018 378.026C434.998 378.037 434.977 378.047 434.958 378.059C426.62 382.886 421.679 410.521 408.546 412.086C403.504 412.687 398.551 402.852 392.208 403.1C384.861 403.388 381.46 413.208 370.919 412.267L369.614 408.031L370.737 409.871L369.669 406.74L370.653 407.786L368.667 401.08L370.709 403.997L368.534 399.153L368.901 399.526L369.29 399.921L368.097 397.647L369.615 398.864L367.155 393.141L367.886 393.903L365.721 386.092L362.815 394.29L363.57 393.803L364.117 393.222L363.82 393.949L361.914 398.836L363.698 396.38L361.397 400.87L363.36 398.98L361.33 402.529L360.031 398.741L360.79 399.457L361.535 400.153L358.698 389.209L356.128 400.084L357.434 398.744L355.731 405.028L356.813 403.246L356.01 406.366C350.819 403.116 345.722 398.989 340.708 395.06L339.401 391.36L341.003 393.548L338.223 384.962L339.89 387.055L338.239 383.079L339.714 384.193L337.399 377.661L338.298 378.482L339.181 379.28L335.82 366.725L333.606 375.797L331.647 370.339L333.379 372.383L330.654 365.174L332.744 366.712L328.631 354.236L324.619 365.332L322.565 359.898L324.239 361.13L320.944 351.134L317.307 361.193L318.263 360.553L319.236 359.895L316.731 365.129L318.327 364.237L316.541 367.423L318.345 365.746L315.337 372.625L317.07 370.872L314.615 376.016L317.633 373.586L314.796 379.981L312.957 375.886L313.324 376.259L313.713 376.654L312.52 374.38L314.038 375.597L311.578 369.874L312.309 370.636L310.144 362.825L307.464 370.385L306.507 368.254L306.874 368.627L307.263 369.022L306.07 366.748L307.588 367.965L305.128 362.242L305.859 363.004L303.694 355.193L300.788 363.391L301.543 362.904L302.09 362.323L301.792 363.05L299.886 367.936L301.671 365.48L299.37 369.97L301.333 368.08L299.017 372.127L300.064 371.064L298.654 374.418C293.678 372.608 288.84 370.639 284.393 368.14C280.657 366.04 277.377 363.395 274.357 360.458L272.95 357.786L274.888 359.259L272.238 355.356L274.073 356.288L272.031 353.37L273.121 354.028L271.904 350.562L273.913 352.933L271.304 346.694L272.441 347.846L270.651 343.782L272.023 344.649L269.322 337.615L266.811 343.576L265.187 337.465L266.469 339.509L264.451 332.3L265.998 333.838L262.953 321.362L259.592 333.917L260.475 333.118L261.374 332.297L259.414 337.829L258.339 333.652L259.112 334.925L257.895 330.436L258.828 331.394L256.992 323.625L255.797 328.236L254.767 324.655L253.943 327.268L252.662 324.183L254.137 325.297L251.822 318.765L252.721 319.587L253.604 320.385L250.243 307.83L247.198 320.306L248.745 318.768L246.727 325.977L248.009 323.933L246.284 330.424C243.568 328.594 240.38 327.033 236.947 325.616L234.633 316.912L235.915 318.956L233.897 311.747L235.444 313.285L232.399 300.809L229.038 313.364L229.921 312.566L230.82 311.744L228.505 318.276L229.98 317.162L228.329 321.138L229.996 319.045L228.842 322.61C226.618 321.85 224.367 321.109 222.13 320.367L219.412 311.685L221.018 313.858L218.49 306.192L220.428 307.827L216.613 294.56L214.599 300.947L211.718 292.435L214.039 294.343L209.47 278.861L204.5 294.215L200.841 282.613L197.026 295.88L198.964 294.245L196.436 301.911L198.042 299.738L194.357 311.506L197.195 307.033L196.023 311.493C194.269 311.451 192.672 311.678 191.148 312.078L189.41 305.327L190.492 307.108L188.789 300.824L190.095 302.165L187.525 291.289L185.873 297.663L184.131 293.181L185.238 294.388L183.495 290.131L184.831 291.039L182.201 283.672L179.298 291.085L180.061 290.614L180.837 290.129L178.838 293.986L180.112 293.328L178.686 295.676L180.125 294.44L177.724 299.51L179.107 298.218L177.148 302.009L179.556 300.218L176.589 306.394L178.356 304.91L176.635 307.704L178.447 306.328L176.247 309.957L175.426 308.046L176.157 308.808L173.992 300.997L171.086 309.195L171.841 308.708L172.388 308.127L172.091 308.854L171.074 311.462L169.936 307.831L170.941 309.134L169.946 306.658L170.835 307.352L169.44 303.284L169.982 303.796L170.515 304.293L168.488 296.475L166.652 304.244L167.585 303.287L166.368 307.776L167.141 306.503L165.777 311.804L163.59 306.764L164.473 307.676L161.856 298.323L159.425 305.117L158.393 302.102L159.359 303.465L157.683 298.118L158.688 299.421L157.693 296.945L158.582 297.639L157.187 293.571L157.729 294.082L158.262 294.579L156.235 286.761L155.664 289.179L153.28 284.57L155.436 287.511L153.133 281.66L152.774 280.789L153.435 281.484L154.347 282.067L150.835 272.251L148.218 281.603L149.101 280.691L146.128 287.543L147.963 286.086L146.522 288.809L147.436 287.89L144.807 293.69L147.275 290.198L145.432 296.365L143.106 291.799L144.584 292.979L143.12 290.738L144.428 291.366L142.375 287.683L143.173 288.146L143.956 288.596L140.975 281.518L139.333 285.795L138.212 282.921L137.914 282.194L138.461 282.775L139.216 283.262L136.31 275.064L134.145 282.875L134.876 282.113L134.164 283.77L132.556 279.233L130.391 287.044L131.122 286.282L128.909 291.43L127.038 286.634L126.741 285.907L127.288 286.488L128.043 286.975L125.137 278.777L122.972 286.588L123.703 285.826L121.243 291.549L122.761 290.332L121.569 292.606L121.958 292.211L122.325 291.838L120.612 295.653C118.876 293.981 117.122 292.3 115.33 290.636L115.523 290.689L114.047 289.458C114.008 289.422 113.968 289.386 113.929 289.35L113.442 288.476L116.502 289.702L114.537 287.371L116.392 288.751L114.115 284.957L115.969 286.477L113.479 279.565L114.919 281.078L113.471 278.728L114.737 279.741L112.724 275.501L114.079 277.391L112.546 272.077L113.514 273.851L112.234 268.778L114.109 270.892L112.468 267.023L113.457 268.018L111.268 264.228L113.123 265.998L110.948 261.793L112.635 264.094L110.833 259.518L110.552 258.837L111.069 259.381L111.783 259.837L109.036 252.159L108.97 252.967L106.989 259.474L107.68 258.761L105.355 264.121L106.79 262.981L105.663 265.111L106.378 264.392L104.322 268.929L106.252 266.197L104.375 272.477L105.305 271.498L104.296 274.43L105.358 272.707L103.996 277.09L102.866 274.711L103.933 276.2L102.725 272.013L103.488 273.411L102.48 269.414L103.958 271.079L102.665 268.031L103.444 268.815L101.719 265.829L103.181 267.224L101.467 263.911L102.796 265.724L101.376 262.118L101.154 261.581L101.561 262.009L102.123 262.368L99.959 256.319L99.907 256.956L98.346 262.083L98.89 261.521L97.058 265.744L98.189 264.846L97.301 266.524L97.864 265.957L96.844 268.208L94.986 263.338L97.074 265.564L95.006 261.336L96.854 262.52L93.954 255.574L95.08 256.447L96.187 257.296L91.976 243.945L88.161 257.212L90.099 255.577L87.655 262.99L84.02 252.576L83.776 250.588L79.961 263.855L81.899 262.22L80.057 267.806C79.897 267.725 79.738 267.645 79.578 267.564L78.813 265.732L79.508 266.271L80.191 266.795L77.743 259.782L77.592 258.555L75.582 265.547C66.615 261.02 57.644 256.49 48.687 251.969C39.481 247.322 34.432 243.282 26.549 246.769C26.388 246.84 26.229 246.92 26.071 247.005L25.339 244.078L27.323 246.335L25.587 242.204L26.634 243.267L24.318 239.22L26.281 241.11L23.98 236.62L25.764 239.076L23.858 234.19L23.561 233.463L24.108 234.044L24.863 234.531L21.957 226.333L19.791 234.144L20.522 233.383L18.062 239.106L19.58 237.889L18.388 240.163L18.777 239.768L19.144 239.395L16.969 244.239L19.011 241.322L17.025 248.028L18.009 246.982L16.941 250.113L18.064 248.273L16.512 253.314L15.461 249.961L16.868 251.785L15.475 248.319L16.72 249.29L14.767 243.596L15.526 244.312L16.272 245.008L13.6 235.694L13.435 234.064L10.865 244.939L12.171 243.599L10.468 249.883L11.55 248.101L9.06701 257.748L10.979 254.082L9.82101 259.441L10.859 258.424L9.90001 260.649C1.67301 259.861 -4.81499 247.044 -11.706 245.203C-16.674 243.876 -25.449 247.644 -30.551 250.401C-32.097 251.236 -33.873 252.515 -35.805 254.038V506.255H789.079ZM491.256 343.269C491.196 343.317 491.136 343.365 491.076 343.413L490.884 342.683L491.256 343.269ZM484.229 337.655L482.905 341.125L482.298 339.713L484.229 337.655ZM482.713 341.629L482.495 342.201L481.819 340.912L482.713 341.629ZM474.77 356.025L474.58 355.636L474.726 355.43L474.965 355.583L474.77 356.025ZM476.059 347.103L475.267 350.272L474.741 348.603L476.059 347.103ZM474.441 350.312L475.126 350.838L474.705 352.521L475.471 351.103L475.547 351.161L475.507 351.035L475.728 350.626L474.948 353.355L473.313 349.438L474.441 350.312ZM468.539 354.934L468.297 355.706L468.248 355.544L468.232 355.349L468.539 354.934ZM460.718 366.289L460.131 364.884L460.547 365.227L460.525 365.299L460.565 365.242L460.964 365.571L460.718 366.289ZM461.721 366.616C461.494 366.768 461.268 366.912 461.041 367.062L461.036 367.05L461.765 366.232L461.827 366.283L461.721 366.616ZM461.091 364.5L461.553 363.848L461.224 364.81L461.091 364.5ZM461.418 360.548L461.239 360.992L461.484 360.674L461.725 361.137L461.575 360.555L462.309 359.603L460.907 364.075L459.933 361.813L460.971 362.83L459.813 357.471L461.418 360.548ZM453.223 366.757L452.461 365.549L453.438 366.083L453.223 366.757ZM452.259 363.468L452.686 363.745L452.601 363.994L452.259 363.468ZM453.609 365.543L452.724 364.182L452.957 363.92L453.321 364.156L453.167 363.684L453.94 362.816L454.093 363.01L453.994 362.755L454.774 361.878L453.609 365.543ZM454.336 358.926L453.479 361.43L453.154 360.594L454.336 358.926ZM453.288 361.989L452.943 362.998L452.137 360.527L453.288 361.989ZM443.228 373.982L442.819 373.397L443.378 373.734L443.228 373.982ZM444.609 373.681L444.029 374.61C443.928 374.639 443.828 374.667 443.727 374.695L443.577 374.481L444.609 373.681ZM444.204 372.373L443.643 373.298L442.692 370.59L444.204 372.373ZM361.742 408.324L361.652 408.037L362.017 407.362L361.742 408.324ZM362.099 401.965L361.573 403.216L361.39 402.684L362.099 401.965ZM361.891 404.358L361.991 404.436L361.943 404.298L362.346 403.84L361.79 406.064L361.351 404.972L361.891 404.358ZM361.712 406.377L361.454 407.408L360.864 405.525L360.966 405.409L361.712 406.377ZM361.29 403.889L361.099 404.343L360.746 403.465L361.29 403.889ZM333.933 379.081L333.547 380.458L333.08 378.907L333.502 378.488L333.933 379.081ZM333.093 377.927L332.955 378.493L332.566 377.203L333.093 377.927ZM324.645 374.182L324.254 373.532L324.256 373.53L324.771 373.892L324.645 374.182ZM324.553 371.049L325.011 370.793L325.15 370.984L324.749 371.7L324.553 371.049ZM325.15 373.028L325.073 372.772L325.392 372.475L325.15 373.028ZM325.289 365.995L326.504 365.173L324.944 368.433L324.305 366.653L325.289 365.995ZM324.576 365.467L324.226 366.435L323.366 364.039L324.576 365.467ZM316.133 379.954L315.819 380.505C315.75 380.479 315.682 380.453 315.613 380.427L316.133 379.954ZM314.671 380.068C314.33 379.94 313.99 379.813 313.648 379.687L313.094 377.815L314.671 380.068ZM307.736 373.871L307.689 373.713L308.124 373.115L307.736 373.871ZM307.996 370.538L308.543 369.957L308.246 370.684L307.947 371.451L307.64 370.767L307.996 370.538ZM307.798 371.831L307.419 372.802L306.643 370.182L307.798 371.831ZM300.315 372.94L299.838 374.848C299.533 374.739 299.231 374.628 298.928 374.518L300.315 372.94ZM266.228 349.798L266.01 349.308L266.325 349.607L266.228 349.798ZM266.827 348.623L266.745 348.257L267.196 347.897L266.827 348.623ZM267.13 344.245L267.927 343.782L267.212 345.065L267.012 344.313L267.13 344.245ZM267.183 346.836L266.621 347.697L266.502 347.163L267.183 346.836ZM266.731 345.928L266.37 346.575L265.869 344.327L266.731 345.928ZM259.555 342.691L259.042 341.5L259.164 341.346L259.579 341.753L259.421 341.023L259.993 340.305L260.118 340.544L260.041 340.245L260.556 339.599L259.555 342.691ZM260.54 337.716L259.83 339.426L259.577 338.443L260.54 337.716ZM259.13 338.649L259.066 338.831L259.18 338.745L259.7 339.742L259.335 340.621L258.753 337.926L259.13 338.649ZM253.853 327.574L253.501 328.689L252.652 326.067L253.853 327.574ZM236.131 325.285C235.956 325.215 235.783 325.143 235.607 325.074L235.317 323.774L236.131 325.285ZM220.879 319.945C220.748 319.901 220.617 319.857 220.486 319.813L220.267 318.98L220.879 319.945ZM214.553 301.117L214.061 302.676L212.83 298.845L214.553 301.117ZM204.102 302.64L203.86 302.006L204.225 302.395L204.102 302.64ZM204.023 300.297L204.182 300.198L205.049 300.754L204.643 301.564L204.023 300.297ZM204.755 304.352L204.291 303.136L204.61 302.805L205.139 303.369L204.755 304.352ZM205.312 302.931L205.035 302.365L205.875 301.492L205.312 302.931ZM205.08 299.637L205.851 299.155L205.32 300.212L205.08 299.637ZM203.955 295.116L205.062 295.965L204.554 294.354L205.762 293.451L207.111 292.432L204.559 298.388L202.829 294.242L203.955 295.116ZM190.489 312.263C190.397 312.29 190.307 312.322 190.216 312.35L189.991 311.308L190.489 312.263ZM185.478 302.934L185.049 302.254L185.607 302.559L185.478 302.934ZM184.847 300.174L185.176 300.388L185.122 300.597L184.847 300.174ZM186.203 300.822L185.881 301.762L185.625 301.368L186.203 300.822ZM185.68 298.446L185.432 299.402L184.724 297.233L185.68 298.446ZM177.197 310.387L176.751 311.102L176.632 310.826L177.197 310.387ZM176.5 312.649L176.839 312.921L176.706 313.176L176.451 312.689L176.5 312.649ZM171.979 311.285L171.389 312.437L171.315 312.2L171.979 311.285ZM171.119 312.469L171.266 312.676L171.077 313.045L170.956 312.693L171.119 312.469ZM170.922 314.577L171.119 314.798L170.798 315.359L170.637 314.853L170.922 314.577ZM165.845 317.676L165.593 316.832L165.738 316.712L166.058 317.165L165.845 317.676ZM165.96 315.496L165.265 313.962L166.179 314.881L165.993 314.529L166.658 313.878L165.96 315.496ZM166.742 310.776L166.276 312.935L165.977 312.245L166.742 310.776ZM166.194 313.316L165.949 314.449L165.384 313.381L165.645 312.88L166.194 313.316ZM165.532 312.791L165.381 313.377L164.737 312.16L165.532 312.791ZM159.926 306.862L159.567 307.733L159.369 308.236L159.172 307.617L159.266 307.557L159.926 306.862ZM159.28 305.55L158.875 306.683L158.09 304.213L159.28 305.55ZM155.598 289.498L155.35 290.546L153.698 287.685L155.598 289.498ZM144.385 297.793L144.907 298.154L144.884 298.231L144.937 298.175L145.522 298.58L145.195 299.531L144.385 297.793ZM145.574 300.343L145.335 299.83L145.932 298.861L146.017 298.92L145.574 300.343ZM146.073 296.978L145.675 298.134L145.416 297.669L146.073 296.978ZM145.404 296.489L145.179 297.242L144.16 295.408L145.404 296.489ZM139.165 288.801L138.827 288.211L138.899 288.165L139.282 288.534L139.165 288.801ZM139.107 286.407L139.011 286.658L138.342 285.353L139.107 286.407ZM128.713 297.275L128.525 296.525L128.832 296.874L128.713 297.275ZM127.505 291.666L129.27 293.366L128.921 294.142L127.505 291.666ZM129.194 295.651L128.978 295.136L129.092 294.973L129.325 295.21L129.194 295.651ZM129.396 294.971L129.26 294.734L129.617 294.224L129.396 294.971ZM129.316 293.262L129.139 292.917L129.382 292.67L129.749 292.297L129.316 293.262ZM130.186 290.79L129.106 292.85L128.672 292.004L130.186 290.79ZM128.904 291.459L128.671 292.002L127.167 289.067L128.904 291.459ZM122.196 293.767L121.411 296.419C121.198 296.214 120.984 296.008 120.771 295.803L122.196 293.767ZM104.418 280.561L104.307 280.254L104.903 279.137L104.418 280.561ZM104.225 277.866L104.456 278.051L104.303 277.729L104.864 276.744L104.381 278.75L104.039 278.194L104.225 277.866ZM104.357 278.85L104.135 279.773L103.75 278.703L103.925 278.396L104.357 278.85ZM103.851 277.567L103.784 277.782L103.458 277.253L103.851 277.567ZM97.77 267.378L97.226 269.197L96.966 268.515L97.77 267.378ZM96.822 270.551L96.745 270.807L96.467 270.139L96.822 270.551ZM87.497 271.559C87.454 271.537 87.411 271.516 87.369 271.494L86.987 270.492L87.102 270.311L87.667 270.913L87.497 271.559ZM87.869 270.142L87.582 269.554L88.07 268.785L88.203 268.871L87.869 270.142ZM86.885 263.089L87.992 263.938L87.694 263.084L89.183 261.069L87.51 266.411L85.759 262.216L86.885 263.089ZM80.983 267.712L80.832 268.194C80.782 268.169 80.732 268.144 80.683 268.118L80.983 267.712ZM16.969 256.966C16.965 256.971 16.96 256.976 16.956 256.981L16.821 256.587L16.985 256.276L17.132 256.483L16.969 256.966ZM17.329 255.899L17.275 255.726L17.586 255.137L17.329 255.899ZM17.544 252.583L17.002 254.855L16.738 254.012L17.544 252.583ZM16.744 255.935L16.684 256.187L16.461 255.536L16.744 255.935Z" fill="url(#paint11_linear_338_285)"/>
</g>
<mask id="mask11_338_285" style="mask-type:luminance" maskUnits="userSpaceOnUse" x="0" y="0" width="750" height="500">
<path d="M0 500L750 500L750 0L0 0L0 500Z" fill="white"/>
</mask>
<g mask="url(#mask11_338_285)">
<path d="M155.138 294.322L155.03 293.894L155.16 293.76L155.26 293.872L155.138 294.322Z" fill="url(#paint12_linear_338_285)"/>
</g>
<mask id="mask12_338_285" style="mask-type:luminance" maskUnits="userSpaceOnUse" x="0" y="0" width="750" height="500">
<path d="M0 500L750 500L750 0L0 0L0 500Z" fill="white"/>
</mask>
<g mask="url(#mask12_338_285)">
<path d="M258.838 341.027L259.071 341.255L259.005 341.414L258.838 341.027Z" fill="url(#paint13_linear_338_285)"/>
</g>
<mask id="mask13_338_285" style="mask-type:luminance" maskUnits="userSpaceOnUse" x="0" y="0" width="750" height="500">
<path d="M0 500L750 500L750 0L0 0L0 500Z" fill="white"/>
</mask>
<g mask="url(#mask13_338_285)">
<path d="M247.269 331.112C247.245 331.095 247.221 331.078 247.197 331.061L247.34 330.795L247.269 331.112Z" fill="url(#paint14_linear_338_285)"/>
</g>
<mask id="mask14_338_285" style="mask-type:luminance" maskUnits="userSpaceOnUse" x="0" y="0" width="750" height="500">
<path d="M0 500L750 500L750 0L0 0L0 500Z" fill="white"/>
</mask>
<g mask="url(#mask14_338_285)">
<path d="M139.601 287.81L139.566 287.743L139.655 287.687L139.601 287.81Z" fill="url(#paint15_linear_338_285)"/>
</g>
<mask id="mask15_338_285" style="mask-type:luminance" maskUnits="userSpaceOnUse" x="0" y="0" width="750" height="500">
<path d="M0 500L750 500L750 0L0 0L0 500Z" fill="white"/>
</mask>
<g mask="url(#mask15_338_285)">
<path d="M159.057 311.137L159.16 310.996L159.208 311.051L159.103 311.254L159.057 311.137Z" fill="url(#paint16_linear_338_285)"/>
</g>
<mask id="mask16_338_285" style="mask-type:luminance" maskUnits="userSpaceOnUse" x="0" y="0" width="750" height="500">
<path d="M0 500L750 500L750 0L0 0L0 500Z" fill="white"/>
</mask>
<g mask="url(#mask16_338_285)">
<path d="M158.967 309.257L158.927 309.16L158.979 309.226L158.967 309.257Z" fill="url(#paint17_linear_338_285)"/>
</g>
<mask id="mask17_338_285" style="mask-type:luminance" maskUnits="userSpaceOnUse" x="0" y="0" width="750" height="500">
<path d="M0 500L750 500L750 0L0 0L0 500Z" fill="white"/>
</mask>
<g mask="url(#mask17_338_285)">
<path d="M166.374 316.411L166.301 316.249L166.516 316.072L166.374 316.411Z" fill="url(#paint18_linear_338_285)"/>
</g>
<mask id="mask18_338_285" style="mask-type:luminance" maskUnits="userSpaceOnUse" x="0" y="0" width="750" height="500">
<path d="M0 500L750 500L750 0L0 0L0 500Z" fill="white"/>
</mask>
<g mask="url(#mask18_338_285)">
<path d="M165.425 316.27L165.55 316.447L165.508 316.546L165.425 316.27Z" fill="url(#paint19_linear_338_285)"/>
</g>
<mask id="mask19_338_285" style="mask-type:luminance" maskUnits="userSpaceOnUse" x="0" y="0" width="750" height="500">
<path d="M0 500L750 500L750 0L0 0L0 500Z" fill="white"/>
</mask>
<g mask="url(#mask19_338_285)">
<path d="M170.342 313.925L170.522 314.127L170.451 314.267L170.342 313.925Z" fill="url(#paint20_linear_338_285)"/>
</g>
<mask id="mask20_338_285" style="mask-type:luminance" maskUnits="userSpaceOnUse" x="0" y="0" width="750" height="500">
<path d="M0 500L750 500L750 0L0 0L0 500Z" fill="white"/>
</mask>
<g mask="url(#mask20_338_285)">
<path d="M171.467 314.188L171.432 314.085L171.641 313.885L171.467 314.188Z" fill="url(#paint21_linear_338_285)"/>
</g>
<mask id="mask21_338_285" style="mask-type:luminance" maskUnits="userSpaceOnUse" x="0" y="0" width="750" height="500">
<path d="M0 500L750 500L750 0L0 0L0 500Z" fill="white"/>
</mask>
<g mask="url(#mask21_338_285)">
<path d="M213.845 307.359L214.034 307.65L213.967 307.811L213.845 307.359Z" fill="url(#paint22_linear_338_285)"/>
</g>
<mask id="mask22_338_285" style="mask-type:luminance" maskUnits="userSpaceOnUse" x="0" y="0" width="750" height="500">
<path d="M0 500L750 500L750 0L0 0L0 500Z" fill="white"/>
</mask>
<g mask="url(#mask22_338_285)">
<path d="M179.4 317.138C179.378 317.147 179.355 317.156 179.333 317.166L179.373 317.018L179.4 317.138Z" fill="url(#paint23_linear_338_285)"/>
</g>
<mask id="mask23_338_285" style="mask-type:luminance" maskUnits="userSpaceOnUse" x="0" y="0" width="750" height="500">
<path d="M0 500L750 500L750 0L0 0L0 500Z" fill="white"/>
</mask>
<g mask="url(#mask23_338_285)">
<path d="M177.219 312.191L177.18 312.1L177.331 311.978L177.219 312.191Z" fill="url(#paint24_linear_338_285)"/>
</g>
<mask id="mask24_338_285" style="mask-type:luminance" maskUnits="userSpaceOnUse" x="0" y="0" width="750" height="500">
<path d="M0 500L750 500L750 0L0 0L0 500Z" fill="white"/>
</mask>
<g mask="url(#mask24_338_285)">
<path d="M170.843 312.08L170.791 312.212L170.656 311.816L170.843 312.08Z" fill="url(#paint25_linear_338_285)"/>
</g>
<mask id="mask25_338_285" style="mask-type:luminance" maskUnits="userSpaceOnUse" x="0" y="0" width="750" height="500">
<path d="M0 500L750 500L750 0L0 0L0 500Z" fill="white"/>
</mask>
<g mask="url(#mask25_338_285)">
<path d="M146.051 298.81L146.009 298.735L146.14 298.523L146.051 298.81Z" fill="url(#paint26_linear_338_285)"/>
</g>
<mask id="mask26_338_285" style="mask-type:luminance" maskUnits="userSpaceOnUse" x="0" y="0" width="750" height="500">
<path d="M0 500L750 500L750 0L0 0L0 500Z" fill="white"/>
</mask>
<g mask="url(#mask26_338_285)">
<path d="M143.864 297.432L143.818 297.55L143.698 297.318L143.864 297.432Z" fill="url(#paint27_linear_338_285)"/>
</g>
<mask id="mask27_338_285" style="mask-type:luminance" maskUnits="userSpaceOnUse" x="0" y="0" width="750" height="500">
<path d="M0 500L750 500L750 0L0 0L0 500Z" fill="white"/>
</mask>
<g mask="url(#mask27_338_285)">
<path d="M86.811 267.978L86.985 268.089L86.938 268.238L86.811 267.978Z" fill="url(#paint28_linear_338_285)"/>
</g>
<mask id="mask28_338_285" style="mask-type:luminance" maskUnits="userSpaceOnUse" x="0" y="0" width="750" height="500">
<path d="M0 500L750 500L750 0L0 0L0 500Z" fill="white"/>
</mask>
<g mask="url(#mask28_338_285)">
<path d="M103.465 277.913L103.675 278.133L103.614 278.328L103.465 277.913Z" fill="url(#paint29_linear_338_285)"/>
</g>
<mask id="mask29_338_285" style="mask-type:luminance" maskUnits="userSpaceOnUse" x="0" y="0" width="750" height="500">
<path d="M0 500L750 500L750 0L0 0L0 500Z" fill="white"/>
</mask>
<g mask="url(#mask29_338_285)">
<path d="M88.332 268.38L88.33 268.375L88.336 268.365L88.332 268.38Z" fill="url(#paint30_linear_338_285)"/>
</g>
<mask id="mask30_338_285" style="mask-type:luminance" maskUnits="userSpaceOnUse" x="0" y="0" width="750" height="500">
<path d="M0 500L750 500L750 0L0 0L0 500Z" fill="white"/>
</mask>
<g mask="url(#mask30_338_285)">
<path d="M76.44 265.734L76.371 265.942C76.334 265.923 76.297 265.904 76.26 265.886L76.44 265.734Z" fill="url(#paint31_linear_338_285)"/>
</g>
<mask id="mask31_338_285" style="mask-type:luminance" maskUnits="userSpaceOnUse" x="0" y="0" width="750" height="500">
<path d="M0 500L750 500L750 0L0 0L0 500Z" fill="white"/>
</mask>
<g mask="url(#mask31_338_285)">
<path d="M360.762 405.144L360.752 405.168L360.733 405.106L360.762 405.144Z" fill="url(#paint32_linear_338_285)"/>
</g>
<mask id="mask32_338_285" style="mask-type:luminance" maskUnits="userSpaceOnUse" x="0" y="0" width="750" height="500">
<path d="M0 500L750 500L750 0L0 0L0 500Z" fill="white"/>
</mask>
<g mask="url(#mask32_338_285)">
<path d="M324.098 369.536L324.29 369.8L324.221 369.944L324.098 369.536Z" fill="url(#paint33_linear_338_285)"/>
</g>
<mask id="mask33_338_285" style="mask-type:luminance" maskUnits="userSpaceOnUse" x="0" y="0" width="750" height="500">
<path d="M0 500L750 500L750 0L0 0L0 500Z" fill="white"/>
</mask>
<g mask="url(#mask33_338_285)">
<path d="M332.759 382.185L333.014 382.364L332.967 382.531L332.759 382.185Z" fill="url(#paint34_linear_338_285)"/>
</g>
<mask id="mask34_338_285" style="mask-type:luminance" maskUnits="userSpaceOnUse" x="0" y="0" width="750" height="500">
<path d="M0 500L750 500L750 0L0 0L0 500Z" fill="white"/>
</mask>
<g mask="url(#mask34_338_285)">
<path d="M333.593 382.832L333.456 383.346L333.366 383.194L333.593 382.832Z" fill="url(#paint35_linear_338_285)"/>
</g>
<mask id="mask35_338_285" style="mask-type:luminance" maskUnits="userSpaceOnUse" x="0" y="0" width="750" height="500">
<path d="M0 500L750 500L750 0L0 0L0 500Z" fill="white"/>
</mask>
<g mask="url(#mask35_338_285)">
<path d="M307.648 375.846L307.687 375.887L307.67 375.916L307.647 375.848L307.648 375.846Z" fill="url(#paint36_linear_338_285)"/>
</g>
<mask id="mask36_338_285" style="mask-type:luminance" maskUnits="userSpaceOnUse" x="0" y="0" width="750" height="500">
<path d="M0 500L750 500L750 0L0 0L0 500Z" fill="white"/>
</mask>
<g mask="url(#mask36_338_285)">
<path d="M334.329 377.666L334.309 377.739L334.295 377.7L334.329 377.666Z" fill="url(#paint37_linear_338_285)"/>
</g>
<mask id="mask37_338_285" style="mask-type:luminance" maskUnits="userSpaceOnUse" x="0" y="0" width="750" height="500">
<path d="M0 500L750 500L750 0L0 0L0 500Z" fill="white"/>
</mask>
<g mask="url(#mask37_338_285)">
<path d="M453.602 368.805L453.557 368.916L453.54 368.883L453.602 368.805Z" fill="url(#paint38_linear_338_285)"/>
</g>
<mask id="mask38_338_285" style="mask-type:luminance" maskUnits="userSpaceOnUse" x="0" y="0" width="750" height="500">
<path d="M0 500L750 500L750 0L0 0L0 500Z" fill="white"/>
</mask>
<g mask="url(#mask38_338_285)">
<path d="M453.691 370.899L453.687 370.908L453.685 370.905L453.691 370.899Z" fill="url(#paint39_linear_338_285)"/>
</g>
<mask id="mask39_338_285" style="mask-type:luminance" maskUnits="userSpaceOnUse" x="0" y="0" width="750" height="500">
<path d="M0 500L750 500L750 0L0 0L0 500Z" fill="white"/>
</mask>
<g mask="url(#mask39_338_285)">
<path d="M474.366 355.2L474.414 355.23L474.402 355.272L474.366 355.2Z" fill="url(#paint40_linear_338_285)"/>
</g>
<mask id="mask40_338_285" style="mask-type:luminance" maskUnits="userSpaceOnUse" x="0" y="0" width="750" height="500">
<path d="M0 500L750 500L750 0L0 0L0 500Z" fill="white"/>
</mask>
<g mask="url(#mask40_338_285)">
<path d="M482.255 342.418L482.368 342.533L482.34 342.607L482.255 342.418Z" fill="url(#paint41_linear_338_285)"/>
</g>
<mask id="mask41_338_285" style="mask-type:luminance" maskUnits="userSpaceOnUse" x="0" y="0" width="750" height="500">
<path d="M0 500L750 500L750 0L0 0L0 500Z" fill="white"/>
</mask>
<g mask="url(#mask41_338_285)">
<path d="M482.595 344.641L482.646 344.714L482.559 344.923L482.507 344.744L482.595 344.641Z" fill="url(#paint42_linear_338_285)"/>
</g>
<mask id="mask42_338_285" style="mask-type:luminance" maskUnits="userSpaceOnUse" x="0" y="0" width="750" height="500">
<path d="M0 500L750 500L750 0L0 0L0 500Z" fill="white"/>
</mask>
<g mask="url(#mask42_338_285)">
<path d="M475.436 354.52L475.413 354.463L475.541 354.282L475.436 354.52Z" fill="url(#paint43_linear_338_285)"/>
</g>
<mask id="mask43_338_285" style="mask-type:luminance" maskUnits="userSpaceOnUse" x="0" y="0" width="750" height="500">
<path d="M0 500L750 500L750 0L0 0L0 500Z" fill="white"/>
</mask>
<g mask="url(#mask43_338_285)">
<path d="M461.84 366.24L461.813 366.177L461.887 366.094L461.84 366.24Z" fill="url(#paint44_linear_338_285)"/>
</g>
<mask id="mask44_338_285" style="mask-type:luminance" maskUnits="userSpaceOnUse" x="0" y="0" width="750" height="500">
<path d="M0 500L750 500L750 0L0 0L0 500Z" fill="white"/>
</mask>
<g mask="url(#mask44_338_285)">
<path d="M465.868 363.021L465.813 363.162L465.721 362.74L465.868 363.021Z" fill="url(#paint45_linear_338_285)"/>
</g>
<mask id="mask45_338_285" style="mask-type:luminance" maskUnits="userSpaceOnUse" x="0" y="0" width="750" height="500">
<path d="M0 500L750 500L750 0L0 0L0 500Z" fill="white"/>
</mask>
<g mask="url(#mask45_338_285)">
<path d="M550.601 506.255C545.773 504.865 540.818 503.954 535.731 503.672C518.321 502.709 516.36 507.363 499.257 497.591C487.09 490.639 476.077 480.92 463.501 474.76C451.324 468.795 448.841 468.453 439.559 458.431C433.46 451.846 427.846 445.262 419.802 445.789C403.556 446.853 401.609 459.434 384.48 454.069C374.389 450.909 367.281 445.695 359.669 439.049C349.943 430.557 343.247 418.321 331.426 413.992C317.003 408.71 314.478 411.84 302.16 402.108C291.741 393.877 287.327 390.746 275.888 394.225C266.87 396.968 256.774 402.958 247.016 406.001C201.647 420.15 161.676 447.271 120.842 470.991C112.039 476.104 104.496 480.835 94.797 481.126C78.528 481.616 82.11 476.622 69.619 489.199C63.56 495.299 57.636 500.92 51.654 506.254H550.601V506.255Z" fill="url(#paint46_linear_338_285)"/>
</g>
<mask id="mask46_338_285" style="mask-type:luminance" maskUnits="userSpaceOnUse" x="0" y="0" width="750" height="500">
<path d="M0 500L750 500L750 0L0 0L0 500Z" fill="white"/>
</mask>
<g mask="url(#mask46_338_285)">
<path d="M408.827 506.255H789.079V347.442C776.118 358.64 761.822 367.817 745.547 369.051L743.924 363.868L745.209 365.607L743.187 359.475L744.737 360.783L741.685 350.17L738.317 360.85L739.202 360.171L740.103 359.472L738.707 362.815L736.103 354.919L738.615 357.038L733.671 339.843L728.622 355.852L725.476 346.309L727.988 348.428L723.044 331.233L717.587 348.536L719.021 347.436L720.481 346.304L716.723 355.307L719.118 353.772L716.438 359.251L719.144 356.366L716.736 362.678L715.413 359.76L716.143 360.494L714.992 358.32L716.457 359.484L714.083 354.011L714.788 354.739L712.765 348.095L712.698 347.27L709.893 355.11L710.622 354.644L711.15 354.089L710.863 354.784L709.782 357.529L708.284 351.706L709.686 354.015L707.479 345.871L709.171 347.608L705.84 333.513L702.356 346.955L700.935 341.878L697.375 351.829L698.3 351.238L698.97 350.534L698.606 351.417L696.271 357.348L698.457 354.366L695.638 359.816L698.043 357.522L696.752 359.758C692.951 360.408 688.868 362.146 683.847 365.394L681.548 356.46L682.95 358.769L680.743 350.625L682.435 352.362L679.104 338.267L675.427 352.451L676.393 351.549L677.377 350.621L674.845 358.001L676.459 356.743L674.653 361.235L676.476 358.87L673.435 368.57L675.187 366.098L673.489 371.061L672.683 369.185L673.63 370.172L670.823 360.049L667.057 370.674L668.035 370.043L668.743 369.291L668.358 370.234L666.426 375.186L665.781 373.048L666.112 373.384L665.659 372.521L665.583 371.571L665.413 372.051L664.567 370.437L666.535 372.015L663.347 364.598L664.294 365.585L661.488 355.462L657.722 366.087L658.7 365.456L659.408 364.703L659.023 365.646L657.57 369.37L655.441 363.827L651.577 373L652.592 372.417L653.626 371.817L650.965 376.59L652.661 375.776L650.763 378.681L652.679 377.152L650.294 381.835L649.006 378.867L650.151 380.049L646.759 367.928L643.399 377.319L641.586 369.647L638.96 379.78L639.65 379.136L640.353 378.473L638.544 383.745L639.697 382.846L638.407 386.055L639.709 384.366L637.982 389.877C633.5 392.366 629.98 395.528 626.764 398.927L626.719 398.48L626.563 399.139C624.1 401.759 621.806 404.513 619.388 407.206L616.371 398.694L613.565 408.817L614.512 407.83L612.99 411.37L609.532 404.172L612.653 406.493L610.113 401.58L611.906 403.255L608.794 396.685L610.659 398.287L608.811 395.244L610.462 396.096L607.871 391.097L608.877 391.726L609.866 392.337L606.104 382.729L602.695 392.277L604.427 391.1L602.168 396.617L603.603 395.053L601.345 400.861L599.204 392.6L595.873 406.695L597.565 404.958L595.358 413.102L596.76 410.793L595.524 415.595L593.645 409.601L595.032 411.4L593.658 407.982L594.886 408.94L592.959 403.324L593.707 404.03L594.442 404.716L591.644 393.923L589.109 404.648L590.397 403.326L588.717 409.523L589.784 407.766L588.512 412.709L588.154 411.8L587.759 410.538L588.09 410.887L588.819 411.353L586.455 404.746L587.652 406.365L584.376 396.429L586.888 398.548L581.944 381.353L577.202 396.389L570.761 376.49L564.84 396.555L567.848 394.082L563.924 405.676L566.417 402.389L563.961 410.033L561.355 404.705L563.75 406.24L559.992 397.237L561.452 398.369L562.886 399.469L557.429 382.166L552.485 399.361L554.997 397.242L551.721 407.177L553.803 404.36L549.027 419.612L552.705 413.816L550.478 422.289L552.474 420.682L549.156 427.014C541.373 425.072 537.05 424.385 525.668 435.068C524.416 436.243 523.161 437.57 521.892 438.953L520.816 434.905L522.477 437.554L519.862 428.211L521.867 430.204L517.921 414.034L513.565 430.306L514.71 429.271L515.875 428.206L513.311 435.44L511.565 430.048L513.725 432.761L511.586 427.608L513.498 429.052L510.498 420.586L511.663 421.651L512.808 422.686L508.452 406.414L504.505 422.584L506.51 420.591L503.895 429.934L505.556 427.285L502.63 438.293L501.032 432.701L502.359 435.157L500.604 428.136L503.175 431.061L500.925 425.707L502.281 427.084L499.28 421.839L501.824 424.288L498.841 418.469L501.154 421.653L498.683 415.32L498.298 414.378L499.006 415.13L499.984 415.761L496.217 405.136L493.411 415.259L494.358 414.272L491.17 421.689L493.138 420.111L491.592 423.058L492.096 422.546L492.572 422.063L489.753 428.341L492.4 424.561L489.827 433.252L491.103 431.897L489.719 435.954L491.174 433.569L488.204 443.213L490.491 439.158L489.006 445.384L490.546 442.469L488 450.009L485.005 443.75L486.266 444.603L487.505 445.432L482.791 432.395L478.52 445.35L480.69 443.753L478.028 450.795L472.828 436.414L467.497 452.584L470.205 450.591L466.673 459.934L468.917 457.285L466.378 464.358L463.508 452.6L459.152 468.872L460.297 467.837L461.462 466.772L459.018 473.668C442.09 484.12 425.377 495.714 408.827 506.255ZM738.818 366.888L738.65 366.351L739.278 365.681L738.818 366.888ZM738.954 364.277L739.081 364.449L738.455 365.73L738.16 364.787L738.954 364.277ZM738.406 363.536L738.041 364.41L737.298 362.037L738.406 363.536ZM727.941 363.538L728.114 363.427L728.747 364.424L728.374 365.186L727.941 363.538ZM728.911 367.231L728.636 366.186L729.368 365.405L729.517 365.64L728.911 367.231ZM728.575 356.004L728.215 357.146L729.649 356.046L731.109 354.914L728.839 360.351L726.671 353.428L728.575 356.004ZM716.584 363.078L716.472 363.372C716.322 363.318 716.172 363.265 716.023 363.212L715.542 361.604L716.584 363.078ZM710.746 357.109L710.03 358.492L709.952 358.191L710.746 357.109ZM709.535 360.439L709.723 360.8L709.582 361.044C709.505 361.021 709.428 360.998 709.351 360.975L709.286 360.675L709.535 360.439ZM709.278 359.946L709.173 360.149L709.024 359.457L709.278 359.946ZM703.13 346.796L704.113 345.868L702.978 349.178L702.481 347.402L703.13 346.796ZM683.143 365.853C682.997 365.95 682.852 366.044 682.704 366.143L682.287 364.211L683.143 365.853ZM675.755 369.923L674.846 372.782C674.702 372.926 674.559 373.07 674.415 373.214L673.897 372.01L675.755 369.923ZM667.386 377.406L667.294 377.2L667.761 376.75L667.386 377.406ZM668.2 373.38L666.803 376.106L666.58 375.61L668.2 373.38ZM658.864 368.792L657.997 370.483L657.872 370.157L658.864 368.792ZM658.141 372.435L658.235 372.494L657.797 373.259L657.645 372.913L658.141 372.435ZM651.922 384.298L651.618 384.885L651.492 384.595L651.922 384.298ZM651.324 381.822L650.743 382.867L650.573 382.474L651.324 381.822ZM644.246 378.989L643.959 379.684L643.885 379.369L644.246 378.989ZM643.389 379.889L643.759 379.5L643.952 379.698L643.779 380.116L643.437 380.985L643.177 380.024L643.389 379.889ZM612.837 411.718L612.49 412.526L611.086 410.247L612.837 411.718ZM612.258 413.064L611.969 413.736L610.967 412.084L612.258 413.064ZM601.871 407.685L601.704 407.199L602.427 406.804L601.871 407.685ZM602.332 404.657L602.262 404.386L602.689 404.109L602.332 404.657ZM602.848 400.297L601.931 403.108L601.61 401.869L602.848 400.297ZM601.682 405.656L601.35 406.166L600.932 404.948L601.682 405.656ZM595.758 419.762L595.352 421.643L594.993 420.513L595.523 419.497L595.758 419.762ZM595.38 416.156L595.213 416.805L594.628 415.095L595.38 416.156ZM594.745 418.625L594.587 419.239L594.195 418.008L594.745 418.625ZM588.678 416.195L588.631 416.41L588.298 415.833L588.678 416.195ZM585.972 404.081L585.951 404.334L585.887 404.544L585.574 403.544L585.972 404.081ZM575.721 406.544L575.436 405.816L575.817 406.211L575.721 406.544ZM576.155 404.158L575.467 402.788L576.466 403.412L576.155 404.158ZM575.583 395.395L577.149 396.566L576.491 398.654L577.925 397.554L579.385 396.422L577.805 400.207L577.727 399.572L577.11 401.719L573.835 394.075L575.583 395.395ZM562.826 421.877L562.403 420.783L562.978 421.314L562.826 421.877ZM563.564 423.785L563.16 422.742L563.897 422.163L564.257 422.495L563.564 423.785ZM565.107 413.421L564.511 415.629L564.2 414.813L565.107 413.421ZM564.11 417.115L563.934 417.766L563.288 416.213L563.307 416.184L564.11 417.115ZM563.948 410.084L563.239 412.291L561.334 407.297L563.948 410.084ZM552.099 425.533L551.102 427.495C550.627 427.378 550.165 427.262 549.716 427.15L552.099 425.533ZM514.424 438.862L514.261 438.357L514.812 437.665L514.424 438.862ZM514.791 435.225L513.923 437.315L513.55 436.162L514.791 435.225ZM513.662 439.109L514.135 439.755L513.878 440.548L513.459 439.363L513.662 439.109ZM512.978 443.33L512.801 443.877L512.423 442.727L512.978 443.33ZM502.316 443.062L502.969 443.861L502.907 444.14L503.071 443.985L503.606 444.64L503.024 445.947L502.316 443.062ZM502.305 441.903L503.218 442.745L503.1 443.274L502.305 441.903ZM503.612 448.551V448.344L503.472 447.774L504.197 447.194L503.612 448.551ZM503.612 444.626V444.157L503.356 443.716L504.5 442.63L503.612 444.626ZM502.83 439.617L503.139 440.052L502.95 439.393L504.684 436.173L503.356 442.126L502.509 440.211L502.83 439.617ZM502.431 439.056L502.268 439.668L501.281 437.437L502.431 439.056ZM488.343 456.307L489.828 455.503L488.638 456.982L488.343 456.307ZM491.711 455.319L491.484 455.992C490.819 456.214 490.164 456.456 489.525 456.728L491.711 455.319ZM486.189 449.375L487.898 450.33L487.584 451.261L488.201 450.499L488.258 450.531L488.227 450.466L489.72 448.623L488.486 452.992L490.055 451.372L487.894 455.281L486.166 451.329L488.503 453.502L486.189 449.375ZM477.352 460.765L477.039 460.048L477.452 460.432L477.352 460.765ZM477.351 458.116L477.531 457.868L478.125 458.2L477.871 459.043L477.351 458.116ZM478.007 462.261L477.843 461.886L478.511 461.417L478.513 461.419L478.007 462.261ZM479.664 449.116L478.549 452.221L478.096 450.967L479.664 449.116ZM477.171 451.651L478.447 452.505L477.619 454.811L475.597 450.586L477.171 451.651ZM467.74 466.177L467.236 467.849L467.057 467.116L467.74 466.177ZM466.528 467.842L467.074 468.385L466.919 468.898C466.67 469.045 466.42 469.186 466.171 469.334L465.968 468.61L466.528 467.842Z" fill="url(#paint47_linear_338_285)"/>
</g>
<mask id="mask47_338_285" style="mask-type:luminance" maskUnits="userSpaceOnUse" x="0" y="0" width="750" height="500">
<path d="M0 500L750 500L750 0L0 0L0 500Z" fill="white"/>
</mask>
<g mask="url(#mask47_338_285)">
<path d="M478.556 456.769L478.467 456.582L478.716 456.24L478.556 456.769Z" fill="url(#paint48_linear_338_285)"/>
</g>
<mask id="mask48_338_285" style="mask-type:luminance" maskUnits="userSpaceOnUse" x="0" y="0" width="750" height="500">
<path d="M0 500L750 500L750 0L0 0L0 500Z" fill="white"/>
</mask>
<g mask="url(#mask48_338_285)">
<path d="M513.097 438.336L513.354 438.687L513.282 438.86L513.097 438.336Z" fill="url(#paint49_linear_338_285)"/>
</g>
<mask id="mask49_338_285" style="mask-type:luminance" maskUnits="userSpaceOnUse" x="0" y="0" width="750" height="500">
<path d="M0 500L750 500L750 0L0 0L0 500Z" fill="white"/>
</mask>
<g mask="url(#mask49_338_285)">
<path d="M465.5 466.82L465.482 466.87L465.456 466.776L465.5 466.82Z" fill="url(#paint50_linear_338_285)"/>
</g>
<mask id="mask50_338_285" style="mask-type:luminance" maskUnits="userSpaceOnUse" x="0" y="0" width="750" height="500">
<path d="M0 500L750 500L750 0L0 0L0 500Z" fill="white"/>
</mask>
<g mask="url(#mask50_338_285)">
<path d="M727.769 362.883L727.777 362.896L727.774 362.903L727.769 362.883Z" fill="url(#paint51_linear_338_285)"/>
</g>
<mask id="mask51_338_285" style="mask-type:luminance" maskUnits="userSpaceOnUse" x="0" y="0" width="750" height="500">
<path d="M0 500L750 500L750 0L0 0L0 500Z" fill="white"/>
</mask>
<g mask="url(#mask51_338_285)">
<path d="M729.58 362.719L729.52 362.526L729.746 362.381L729.58 362.719Z" fill="url(#paint52_linear_338_285)"/>
</g>
<mask id="mask52_338_285" style="mask-type:luminance" maskUnits="userSpaceOnUse" x="0" y="0" width="750" height="500">
<path d="M0 500L750 500L750 0L0 0L0 500Z" fill="white"/>
</mask>
<g mask="url(#mask52_338_285)">
<path d="M710.346 359.721L710.334 359.676L710.419 359.595L710.346 359.721Z" fill="url(#paint53_linear_338_285)"/>
</g>
<mask id="mask53_338_285" style="mask-type:luminance" maskUnits="userSpaceOnUse" x="0" y="0" width="750" height="500">
<path d="M0 500L750 500L750 0L0 0L0 500Z" fill="white"/>
</mask>
<g mask="url(#mask53_338_285)">
<path d="M739.262 364.08L739.18 364.247L739.149 364.153L739.262 364.08Z" fill="url(#paint54_linear_338_285)"/>
</g>
<mask id="mask54_338_285" style="mask-type:luminance" maskUnits="userSpaceOnUse" x="0" y="0" width="750" height="500">
<path d="M0 500L750 500L750 0L0 0L0 500Z" fill="white"/>
</mask>
<g mask="url(#mask54_338_285)">
<path d="M657.162 371.816L657.277 371.888L657.232 371.975L657.162 371.816Z" fill="url(#paint55_linear_338_285)"/>
</g>
<mask id="mask55_338_285" style="mask-type:luminance" maskUnits="userSpaceOnUse" x="0" y="0" width="750" height="500">
<path d="M0 500L750 500L750 0L0 0L0 500Z" fill="white"/>
</mask>
<g mask="url(#mask55_338_285)">
<path d="M667.117 377.473L667.244 377.654L667.197 377.737L667.117 377.473Z" fill="url(#paint56_linear_338_285)"/>
</g>
<mask id="mask56_338_285" style="mask-type:luminance" maskUnits="userSpaceOnUse" x="0" y="0" width="750" height="500">
<path d="M0 500L750 500L750 0L0 0L0 500Z" fill="white"/>
</mask>
<g mask="url(#mask56_338_285)">
<path d="M665.251 372.506L665.222 372.586L665.132 372.386L665.251 372.506Z" fill="url(#paint57_linear_338_285)"/>
</g>
<mask id="mask57_338_285" style="mask-type:luminance" maskUnits="userSpaceOnUse" x="0" y="0" width="750" height="500">
<path d="M0 500L750 500L750 0L0 0L0 500Z" fill="white"/>
</mask>
<g mask="url(#mask57_338_285)">
<path d="M642.924 378.643L642.855 378.835L642.756 378.471L642.924 378.643Z" fill="url(#paint58_linear_338_285)"/>
</g>
<mask id="mask58_338_285" style="mask-type:luminance" maskUnits="userSpaceOnUse" x="0" y="0" width="750" height="500">
<path d="M0 500L750 500L750 0L0 0L0 500Z" fill="white"/>
</mask>
<g mask="url(#mask58_338_285)">
<path d="M618.59 408.079C618.572 408.099 618.553 408.119 618.535 408.139L618.449 407.93L618.59 408.079Z" fill="url(#paint59_linear_338_285)"/>
</g>
<mask id="mask59_338_285" style="mask-type:luminance" maskUnits="userSpaceOnUse" x="0" y="0" width="750" height="500">
<path d="M0 500L750 500L750 0L0 0L0 500Z" fill="white"/>
</mask>
<g mask="url(#mask59_338_285)">
<path d="M595.938 418.926L595.891 418.789L596.022 418.538L595.938 418.926Z" fill="url(#paint60_linear_338_285)"/>
</g>
<mask id="mask60_338_285" style="mask-type:luminance" maskUnits="userSpaceOnUse" x="0" y="0" width="750" height="500">
<path d="M0 500L750 500L750 0L0 0L0 500Z" fill="white"/>
</mask>
<g mask="url(#mask60_338_285)">
<path d="M589.225 413.66L589.107 414.206L589.036 414.024L589.225 413.66Z" fill="url(#paint61_linear_338_285)"/>
</g>
<mask id="mask61_338_285" style="mask-type:luminance" maskUnits="userSpaceOnUse" x="0" y="0" width="750" height="500">
<path d="M0 500L750 500L750 0L0 0L0 500Z" fill="white"/>
</mask>
<g mask="url(#mask61_338_285)">
<path d="M390.171 506.255C384.272 504.034 378.345 501.83 372.409 499.618L370.54 495.483L375.261 499.663L368.805 488.586L373.276 491.231L368.3 482.95L370.957 484.816L367.993 474.979L372.889 481.709L366.532 464L369.303 467.27L364.942 455.735L368.286 458.196L361.705 438.233L355.285 455.987L351.998 447.293L354.677 449.264L349.404 433.27L343.584 449.366L345.114 448.343L346.671 447.29L342.663 455.664L345.217 454.236L342.359 459.333L345.245 456.65L340.431 467.657L343.204 464.852L339.554 472.499L336.76 466.278L337.348 466.875L337.97 467.507L336.062 463.869L338.491 465.817L334.555 456.66L335.724 457.879L332.259 445.381L327.609 458.498L328.817 457.719L329.692 456.79L329.216 457.954L327.569 462.175L322.982 451.545L326.292 454.19L322.608 445.909L324.575 447.775L322.381 437.938L326.006 444.668L321.299 426.961L323.35 430.231L320.121 418.696L322.597 421.156L317.725 401.193L312.347 421.282L313.761 420.005L315.2 418.691L311.497 429.143L313.857 427.361L311.216 433.723L313.883 430.374L311.727 437.032L308.562 428.1L310.001 429.414L311.414 430.692L306.036 410.603L301.164 430.566L303.64 428.106L300.411 439.641L302.462 436.371L297.755 454.078L301.38 447.348L299.186 457.185L301.153 455.319L297.469 463.6L300.779 460.955L297.62 468.275C296.76 467.835 295.892 467.406 295.037 466.959C284.184 461.285 274.94 454.283 265.911 447.307L262.373 440.348L266.52 443.16L261.905 434.354L264.369 436.339L261.62 425.879L266.161 433.035L260.265 414.205L262.835 417.682L258.79 405.416L261.891 408.032L255.787 386.804L249.52 406.675L246.163 396.227L249.24 400.285L244.396 385.971L248.11 389.024L240.8 364.252L232.848 388.819L226.994 370.256L220.89 391.484L223.991 388.868L219.946 401.134L222.516 397.657L218.925 409.126L217.314 402.865L218.631 405.034L216.557 397.383L218.147 399.015L215.018 385.774L211.564 399.099L212.472 398.252L213.396 397.38L211.018 404.313L212.534 403.131L210.838 407.351L212.551 405.13L210.231 412.53L208.705 406.602L210.436 409.453L207.711 399.398L209.8 401.543L205.688 384.142L203.045 394.34L200.257 387.169L202.029 389.1L199.241 382.289L201.379 383.742L197.171 371.955L192.526 383.817L193.747 383.063L194.989 382.287L191.791 388.458L193.829 387.406L191.548 391.162L193.851 389.184L190.009 397.296L192.222 395.228L189.087 401.294L192.941 398.429L188.194 408.31L191.021 405.935L188.552 409.942L186.518 402.038L187.755 404.074L185.808 396.891L187.301 398.423L184.363 385.992L184.175 387.855L181.121 398.502L181.973 397.706L182.84 396.888L180.607 403.396L182.03 402.286L180.438 406.247L182.046 404.162L179.364 412.717L180.909 410.537L179.399 414.951C175.941 414.046 172.251 412.59 168.092 410.222C164.286 408.055 160.522 405.795 156.777 403.501L154.161 394.43L156.141 398.06L153.523 387.682L157.359 392.005L154.002 384.091L156.026 386.127L151.549 378.374L155.344 381.995L150.894 373.393L154.344 378.099L150.658 368.738L150.083 367.345L151.14 368.457L152.6 369.39L146.981 353.684L142.794 368.648L144.207 367.189L142.617 370.853L139.672 365.072L142.037 366.96L139.694 363.374L141.787 364.379L138.502 358.487L139.778 359.228L141.032 359.948L136.262 348.623L131.94 359.877L134.136 358.49L131.669 364.092L128.391 354.844L126.616 361.245L123.728 353.842L123.252 352.678L124.127 353.607L125.335 354.386L120.685 341.269L120.574 342.65L117.22 353.767L118.389 352.548L114.453 361.705L116.882 359.757L114.974 363.395L115.596 362.763L116.184 362.166L114.375 366.195L111.181 356.151L114.947 360.381L111.883 351.426L114.046 354.478L110.292 342.503L112.542 345.422L110.313 339.877L112.305 341.431L109.179 332.32L110.393 333.466L111.586 334.58L107.047 317.069L102.935 334.47L105.024 332.325L102.299 342.38L104.03 339.529L100.058 354.964L103.117 349.098L101.265 357.673L102.925 356.046L100.596 361.454C97.273 358.782 94.043 356.889 91.063 356.549C89.691 356.392 88.261 356.642 86.794 357.159L85.71 353.399L87.259 356.238L85.211 348.121L88.212 351.503L85.586 345.313L87.169 346.906L83.667 340.842L86.636 343.674L83.155 336.946L85.854 340.627L82.971 333.305L82.521 332.215L83.348 333.085L84.49 333.815L80.095 321.53L76.82 333.235L77.925 332.094L74.204 340.67L76.5 338.846L74.696 342.253L75.84 341.102L74.774 343.455L74.489 342.552L73.285 346.741L72.55 348.362L73.003 347.721L71.885 351.609L69.898 346.926L71.145 348.181L68.386 343.403L70.725 345.634L67.983 340.333L70.109 343.233L67.838 337.464L67.484 336.605L68.135 337.29L69.034 337.865L65.571 328.186L65.488 329.205L62.99 337.408L63.861 336.509L60.93 343.266L62.739 341.829L61.318 344.514L62.219 343.608L59.967 348.577L57.185 339.756L51.081 360.984L54.182 358.367L51.59 366.229C49.118 365.055 46.769 363.81 44.83 362.852C30.525 355.782 26.571 349.033 9.06201 339.065C1.20301 334.59 -4.78399 329.185 -8.57599 328.998V506.264H390.171V506.255ZM354.442 462.71L354.749 463.132L354.638 463.363L354.442 462.71ZM355.318 470.144L354.693 469.104L354.696 469.101L355.521 469.68L355.318 470.144ZM355.172 465.13L355.905 464.72L356.127 465.026L355.485 466.171L355.172 465.13ZM356.126 468.297L356.003 467.887L356.513 467.413L356.126 468.297ZM356.349 457.045L358.292 455.731L355.796 460.947L354.774 458.099L356.349 457.045ZM355.208 456.2L354.648 457.748L353.272 453.915L355.208 456.2ZM338.736 481.293L338.486 480.482L338.839 481.06L338.736 481.293ZM338.575 478.417L339.552 479.455L339.2 480.249L338.575 478.417ZM338.924 481.903L339.2 481.652L339.824 482.674L339.394 483.43L338.924 481.903ZM339.565 481.319L341.698 479.378L339.95 482.45L339.565 481.319ZM340.084 485.668L339.658 484.285L341.881 482.458L340.084 485.668ZM339.398 472.823L339.275 473.081L339.469 472.925L340.241 474.027L339.673 472.761L344.105 469.193L339.799 478.9L336.974 469.36L339.398 472.823ZM325.771 478.072L324.845 476.047L324.872 476.016L325.949 477.357L325.771 478.072ZM325.107 465.675L326.336 467.078L325.932 467.866L325.107 465.675ZM326.362 475.71L325.992 474.744L326.237 474.465L326.571 474.871L326.362 475.71ZM326.519 469.426L326.094 468.296L326.804 467.612L327.259 468.132L326.519 469.426ZM327.418 467.854L327.207 467.224L328.48 465.999L327.418 467.854ZM329.021 461.839L326.833 466.108L326.545 465.248L329.021 461.839ZM327.512 462.32L326.465 465.005L324.268 458.441L327.512 462.32ZM312.828 446.028L312.362 447.447L312.144 446.772L312.828 446.028ZM311.996 440.607L311.767 441.254L311.678 441.041L311.996 440.607ZM311.031 443.337L310.714 442.358L311.298 441.56L311.548 441.874L311.031 443.337ZM311.436 437.923L310.975 439.346L309.904 436.766L311.436 437.923ZM310.559 440.633L310.357 441.256L309.879 439.779L310.559 440.633ZM299.494 467.849L299.1 469.026C298.962 468.956 298.824 468.885 298.686 468.815L299.494 467.849ZM249.366 422.04L248.512 420.452L248.735 420.214L249.756 421.016L249.366 422.04ZM249.35 415.645L250.911 414.645L250.923 414.663L249.739 417.084L249.35 415.645ZM250.367 419.415L250.17 418.684L250.972 417.829L250.367 419.415ZM250.82 406.804L252.622 405.406L250.64 410.155L249.812 407.577L250.82 406.804ZM249.604 412.638L248.957 414.188L247.786 409.846L249.604 412.638ZM232.197 402.295L231.81 401.281L232.393 401.903L232.197 402.295ZM232.071 398.546L232.325 398.387L233.712 399.276L233.062 400.572L232.071 398.546ZM233.242 405.035L232.5 403.09L233.01 402.56L233.857 403.463L233.242 405.035ZM234.132 402.761L233.689 401.855L235.033 400.458L234.132 402.761ZM233.762 397.49L234.995 396.72L234.146 398.411L233.762 397.49ZM231.961 390.256L233.732 391.615L232.919 389.038L234.852 387.593L237.01 385.962L232.927 395.492L230.158 388.859L231.961 390.256ZM219.026 417.451L218.155 415.429L219.27 416.522L219.026 417.451ZM219.944 419.581L219.615 418.818L220.876 417.802L219.944 419.581ZM221.162 409.326L220.059 413.523L219.609 411.774L221.162 409.326ZM219.198 412.421L219.963 413.888L219.335 416.278L218.679 413.24L219.198 412.421ZM218.382 410.857L218.253 411.27L218.009 410.142L218.382 410.857ZM211.391 417.029L211.196 416.271L211.875 415.509L211.391 417.029ZM211.34 411.914L210.618 414.025L210.412 413.224L211.34 411.914ZM210.236 417.349L210.39 417.644C210.272 417.623 210.15 417.597 210.033 417.577L210.236 417.349ZM202.398 402.766L201.712 401.678L202.604 402.166L202.398 402.766ZM201.388 398.35L201.915 398.692L201.828 399.027L201.388 398.35ZM203.557 399.387L203.041 400.891L202.631 400.261L203.557 399.387ZM202.721 395.585L202.325 397.115L201.193 393.644L202.721 395.585ZM188.278 416.084L188.047 415.547L189.148 414.692L188.278 416.084ZM191.167 408.197L189.017 411.742L188.605 410.141L191.167 408.197ZM188.831 412.05L188.114 413.233L187.171 408.866L188.831 412.05ZM181.41 413.905L180.959 415.322C180.737 415.273 180.512 415.217 180.289 415.163L181.41 413.905ZM155.395 402.642C155.256 402.557 155.118 402.471 154.98 402.386L154.525 401.428L155.395 402.642ZM141.987 376.565L141.827 376.256L142.384 375.813L141.987 376.565ZM142.271 371.642L142.061 372.127L141.344 370.837L142.271 371.642ZM141.136 374.258L140.98 374.616L140.606 373.891L141.136 374.258ZM133.092 363.142L132.141 365.416L131.799 364.452L133.092 363.142ZM131.537 366.86L131.371 367.256L130.958 366.246L131.537 366.86ZM125.793 364.205L124.464 361.883L126.021 363.382L125.793 364.205ZM126.577 361.377L126.303 362.366L123.923 357.723L126.577 361.377ZM115.971 365.244L115.056 368.333L114.666 367.107L115.971 365.244ZM113.865 368.253L114.749 369.374L114.406 370.533L113.619 368.604L113.865 368.253ZM113.6 367.916L113.463 368.222L113.057 367.228L113.6 367.916ZM114.018 371.842L113.765 372.696L112.915 370.577L114.018 371.842ZM102.611 360.953L101.94 362.56C101.728 362.378 101.517 362.206 101.306 362.03L102.611 360.953ZM75.639 343.983L75.3 345.116L75.157 344.664L75.639 343.983ZM70.95 359.143L70.22 357.606L71.067 358.787L70.95 359.143ZM71.477 360.251L71.345 359.972L71.636 359.579L71.672 359.63L71.477 360.251ZM72.636 354.032L71.342 357.955L69.996 353.289L70.915 354.974L70.721 355.647L71.105 355.323L71.216 355.526L71.154 355.282L72.636 354.032ZM71.863 351.677L71.001 354.673L69.603 349.13L71.863 351.677ZM62.061 345.875L60.629 350.666L60.026 348.754L62.061 345.875Z" fill="url(#paint62_linear_338_285)"/>
</g>
<mask id="mask62_338_285" style="mask-type:luminance" maskUnits="userSpaceOnUse" x="0" y="0" width="750" height="500">
<path d="M0 500L750 500L750 0L0 0L0 500Z" fill="white"/>
</mask>
<g mask="url(#mask62_338_285)">
<path d="M187.308 413.83L187.586 414.103L187.492 414.258L187.308 413.83Z" fill="url(#paint63_linear_338_285)"/>
</g>
<mask id="mask63_338_285" style="mask-type:luminance" maskUnits="userSpaceOnUse" x="0" y="0" width="750" height="500">
<path d="M0 500L750 500L750 0L0 0L0 500Z" fill="white"/>
</mask>
<g mask="url(#mask63_338_285)">
<path d="M248.127 419.737L248.353 419.914L248.291 420.042L248.127 419.737Z" fill="url(#paint64_linear_338_285)"/>
</g>
<mask id="mask64_338_285" style="mask-type:luminance" maskUnits="userSpaceOnUse" x="0" y="0" width="750" height="500">
<path d="M0 500L750 500L750 0L0 0L0 500Z" fill="white"/>
</mask>
<g mask="url(#mask64_338_285)">
<path d="M218.506 419.431L218.396 419.167L218.543 419.289L218.506 419.431Z" fill="url(#paint65_linear_338_285)"/>
</g>
<mask id="mask65_338_285" style="mask-type:luminance" maskUnits="userSpaceOnUse" x="0" y="0" width="750" height="500">
<path d="M0 500L750 500L750 0L0 0L0 500Z" fill="white"/>
</mask>
<g mask="url(#mask65_338_285)">
<path d="M218.784 419.488L219.087 419.738C218.938 419.694 218.791 419.647 218.641 419.603L218.784 419.488Z" fill="url(#paint66_linear_338_285)"/>
</g>
<mask id="mask66_338_285" style="mask-type:luminance" maskUnits="userSpaceOnUse" x="0" y="0" width="750" height="500">
<path d="M0 500L750 500L750 0L0 0L0 500Z" fill="white"/>
</mask>
<g mask="url(#mask66_338_285)">
<path d="M209.78 416.474L209.722 416.643L209.618 416.164L209.78 416.474Z" fill="url(#paint67_linear_338_285)"/>
</g>
<mask id="mask67_338_285" style="mask-type:luminance" maskUnits="userSpaceOnUse" x="0" y="0" width="750" height="500">
<path d="M0 500L750 500L750 0L0 0L0 500Z" fill="white"/>
</mask>
<g mask="url(#mask67_338_285)">
<path opacity="0.54" d="M427.275 250C427.335 249.919 427.394 249.838 427.443 249.756C430.517 244.385 406.346 234.563 392.124 243.616C389.937 234.757 382.386 227.46 373.459 225.576C364.541 223.693 354.685 227.324 349.111 234.537C350.724 230.204 348.401 224.808 344.17 222.967C339.922 221.143 334.407 223.178 332.363 227.325C330.724 220.172 322.625 213.964 311.587 215.349C300.532 216.726 293.978 223.98 293.564 232.181C291.41 230.323 285.245 230.855 284.088 237.155C281.36 232.172 269.545 229.74 258.777 236.049C254.875 238.338 251.632 242.307 249.858 246.842C249.453 247.869 249.132 248.928 248.886 249.999H427.275V250Z" fill="url(#paint68_linear_338_285)"/>
</g>
<rect width="750" height="500" fill="#52489C" fill-opacity="0.53"/>
</g>
<defs>
<linearGradient id="paint0_linear_338_285" x1="375" y1="306.313" x2="375" y2="5.08351" gradientUnits="userSpaceOnUse">
<stop stop-color="#FFCA7E"/>
<stop offset="0.1608" stop-color="#FFC886"/>
<stop offset="0.4163" stop-color="#FFC49D"/>
<stop offset="0.4678" stop-color="#FFC3A3"/>
<stop offset="0.4876" stop-color="#F9C2A5"/>
<stop offset="0.7356" stop-color="#ACB4C2"/>
<stop offset="0.9124" stop-color="#7CABD4"/>
<stop offset="1" stop-color="#69A8DB"/>
</linearGradient>
<linearGradient id="paint1_linear_338_285" x1="78.2314" y1="211.316" x2="78.2314" y2="157.03" gradientUnits="userSpaceOnUse">
<stop stop-color="#D9F1F8" stop-opacity="0"/>
<stop offset="0.1236" stop-color="#E6F6FA" stop-opacity="0.1236"/>
<stop offset="0.3328" stop-color="#F4FBFD" stop-opacity="0.3328"/>
<stop offset="0.586" stop-color="#FCFEFF" stop-opacity="0.586"/>
<stop offset="1" stop-color="white"/>
</linearGradient>
<linearGradient id="paint2_linear_338_285" x1="269.155" y1="80.5862" x2="269.155" y2="43.6501" gradientUnits="userSpaceOnUse">
<stop stop-color="#D9F1F8" stop-opacity="0"/>
<stop offset="0.1236" stop-color="#E6F6FA" stop-opacity="0.1236"/>
<stop offset="0.3328" stop-color="#F4FBFD" stop-opacity="0.3328"/>
<stop offset="0.586" stop-color="#FCFEFF" stop-opacity="0.586"/>
<stop offset="1" stop-color="white"/>
</linearGradient>
<linearGradient id="paint3_linear_338_285" x1="541.551" y1="155.204" x2="541.551" y2="100.211" gradientUnits="userSpaceOnUse">
<stop stop-color="#D9F1F8" stop-opacity="0"/>
<stop offset="0.1236" stop-color="#E6F6FA" stop-opacity="0.1236"/>
<stop offset="0.3328" stop-color="#F4FBFD" stop-opacity="0.3328"/>
<stop offset="0.586" stop-color="#FCFEFF" stop-opacity="0.586"/>
<stop offset="1" stop-color="white"/>
</linearGradient>
<linearGradient id="paint4_linear_338_285" x1="389.368" y1="113.138" x2="355.707" y2="342.651" gradientUnits="userSpaceOnUse">
<stop offset="0.4362" stop-color="#B3AF9E"/>
<stop offset="1" stop-color="#3460A5"/>
</linearGradient>
<linearGradient id="paint5_linear_338_285" x1="449.874" y1="123.124" x2="522.345" y2="346.678" gradientUnits="userSpaceOnUse">
<stop stop-color="#B3AF9E"/>
<stop offset="1" stop-color="#3460A5"/>
</linearGradient>
<linearGradient id="paint6_linear_338_285" x1="377.452" y1="494.011" x2="374.741" y2="268.986" gradientUnits="userSpaceOnUse">
<stop stop-color="#B3AF9E"/>
<stop offset="1" stop-color="#3468A5"/>
</linearGradient>
<linearGradient id="paint7_linear_338_285" x1="374.836" y1="488.742" x2="386.926" y2="306.669" gradientUnits="userSpaceOnUse">
<stop offset="0.1078" stop-color="#A8A595"/>
<stop offset="0.2749" stop-color="#879296"/>
<stop offset="0.5412" stop-color="#597898"/>
<stop offset="0.746" stop-color="#3C679A"/>
<stop offset="0.8632" stop-color="#31619A"/>
</linearGradient>
<linearGradient id="paint8_linear_338_285" x1="507.24" y1="561.287" x2="461.154" y2="290.922" gradientUnits="userSpaceOnUse">
<stop offset="0.1078" stop-color="#A8A595"/>
<stop offset="0.2749" stop-color="#879296"/>
<stop offset="0.5412" stop-color="#597898"/>
<stop offset="0.746" stop-color="#3C679A"/>
<stop offset="0.8632" stop-color="#31619A"/>
</linearGradient>
<linearGradient id="paint9_linear_338_285" x1="674.918" y1="301.484" x2="674.918" y2="254.551" gradientUnits="userSpaceOnUse">
<stop stop-color="#D9F1F8" stop-opacity="0"/>
<stop offset="0.1236" stop-color="#E6F6FA" stop-opacity="0.1236"/>
<stop offset="0.3328" stop-color="#F4FBFD" stop-opacity="0.3328"/>
<stop offset="0.586" stop-color="#FCFEFF" stop-opacity="0.586"/>
<stop offset="1" stop-color="white"/>
</linearGradient>
<linearGradient id="paint10_linear_338_285" x1="666.82" y1="434.424" x2="628.741" y2="289.538" gradientUnits="userSpaceOnUse">
<stop stop-color="#8D94A4"/>
<stop offset="1" stop-color="#003D86"/>
</linearGradient>
<linearGradient id="paint11_linear_338_285" x1="373.144" y1="571.508" x2="377.973" y2="307.127" gradientUnits="userSpaceOnUse">
<stop stop-color="#8D878A"/>
<stop offset="1" stop-color="#003D86"/>
</linearGradient>
<linearGradient id="paint12_linear_338_285" x1="150.149" y1="567.43" x2="154.978" y2="303.053" gradientUnits="userSpaceOnUse">
<stop stop-color="#8D878A"/>
<stop offset="1" stop-color="#003D86"/>
</linearGradient>
<linearGradient id="paint13_linear_338_285" x1="254.786" y1="569.376" x2="259.615" y2="304.96" gradientUnits="userSpaceOnUse">
<stop stop-color="#8D878A"/>
<stop offset="1" stop-color="#003D86"/>
</linearGradient>
<linearGradient id="paint14_linear_338_285" x1="242.917" y1="569.169" x2="247.747" y2="304.744" gradientUnits="userSpaceOnUse">
<stop stop-color="#8D878A"/>
<stop offset="1" stop-color="#003D86"/>
</linearGradient>
<linearGradient id="paint15_linear_338_285" x1="134.507" y1="567.107" x2="139.334" y2="302.766" gradientUnits="userSpaceOnUse">
<stop stop-color="#8D878A"/>
<stop offset="1" stop-color="#003D86"/>
</linearGradient>
<linearGradient id="paint16_linear_338_285" x1="154.449" y1="567.503" x2="159.279" y2="303.133" gradientUnits="userSpaceOnUse">
<stop stop-color="#8D878A"/>
<stop offset="1" stop-color="#003D86"/>
</linearGradient>
<linearGradient id="paint17_linear_338_285" x1="154.237" y1="567.346" x2="159.062" y2="303.132" gradientUnits="userSpaceOnUse">
<stop stop-color="#8D878A"/>
<stop offset="1" stop-color="#003D86"/>
</linearGradient>
<linearGradient id="paint18_linear_338_285" x1="161.816" y1="567.606" x2="166.644" y2="303.269" gradientUnits="userSpaceOnUse">
<stop stop-color="#8D878A"/>
<stop offset="1" stop-color="#003D86"/>
</linearGradient>
<linearGradient id="paint19_linear_338_285" x1="160.898" y1="567.636" x2="165.727" y2="303.25" gradientUnits="userSpaceOnUse">
<stop stop-color="#8D878A"/>
<stop offset="1" stop-color="#003D86"/>
</linearGradient>
<linearGradient id="paint20_linear_338_285" x1="165.797" y1="567.78" x2="170.627" y2="303.337" gradientUnits="userSpaceOnUse">
<stop stop-color="#8D878A"/>
<stop offset="1" stop-color="#003D86"/>
</linearGradient>
<linearGradient id="paint21_linear_338_285" x1="166.901" y1="567.759" x2="171.73" y2="303.359" gradientUnits="userSpaceOnUse">
<stop stop-color="#8D878A"/>
<stop offset="1" stop-color="#003D86"/>
</linearGradient>
<linearGradient id="paint22_linear_338_285" x1="209.172" y1="568.523" x2="214.001" y2="304.131" gradientUnits="userSpaceOnUse">
<stop stop-color="#8D878A"/>
<stop offset="1" stop-color="#003D86"/>
</linearGradient>
<linearGradient id="paint23_linear_338_285" x1="174.784" y1="567.993" x2="179.614" y2="303.498" gradientUnits="userSpaceOnUse">
<stop stop-color="#8D878A"/>
<stop offset="1" stop-color="#003D86"/>
</linearGradient>
<linearGradient id="paint24_linear_338_285" x1="172.583" y1="567.838" x2="177.412" y2="303.464" gradientUnits="userSpaceOnUse">
<stop stop-color="#8D878A"/>
<stop offset="1" stop-color="#003D86"/>
</linearGradient>
<linearGradient id="paint25_linear_338_285" x1="166.077" y1="567.722" x2="170.906" y2="303.345" gradientUnits="userSpaceOnUse">
<stop stop-color="#8D878A"/>
<stop offset="1" stop-color="#003D86"/>
</linearGradient>
<linearGradient id="paint26_linear_338_285" x1="141.168" y1="567.255" x2="145.997" y2="302.889" gradientUnits="userSpaceOnUse">
<stop stop-color="#8D878A"/>
<stop offset="1" stop-color="#003D86"/>
</linearGradient>
<linearGradient id="paint27_linear_338_285" x1="138.851" y1="567.269" x2="143.681" y2="302.848" gradientUnits="userSpaceOnUse">
<stop stop-color="#8D878A"/>
<stop offset="1" stop-color="#003D86"/>
</linearGradient>
<linearGradient id="paint28_linear_338_285" x1="81.4529" y1="566.142" x2="86.2813" y2="301.795" gradientUnits="userSpaceOnUse">
<stop stop-color="#8D878A"/>
<stop offset="1" stop-color="#003D86"/>
</linearGradient>
<linearGradient id="paint29_linear_338_285" x1="98.3001" y1="566.518" x2="103.129" y2="302.109" gradientUnits="userSpaceOnUse">
<stop stop-color="#8D878A"/>
<stop offset="1" stop-color="#003D86"/>
</linearGradient>
<linearGradient id="paint30_linear_338_285" x1="87.24" y1="328.303" x2="89.4324" y2="208.457" gradientUnits="userSpaceOnUse">
<stop stop-color="#8D878A"/>
<stop offset="1" stop-color="#003D86"/>
</linearGradient>
<linearGradient id="paint31_linear_338_285" x1="70.8681" y1="565.917" x2="75.6954" y2="301.597" gradientUnits="userSpaceOnUse">
<stop stop-color="#8D878A"/>
<stop offset="1" stop-color="#003D86"/>
</linearGradient>
<linearGradient id="paint32_linear_338_285" x1="357.715" y1="571.226" x2="362.547" y2="306.844" gradientUnits="userSpaceOnUse">
<stop stop-color="#8D878A"/>
<stop offset="1" stop-color="#003D86"/>
</linearGradient>
<linearGradient id="paint33_linear_338_285" x1="320.525" y1="570.529" x2="325.353" y2="306.171" gradientUnits="userSpaceOnUse">
<stop stop-color="#8D878A"/>
<stop offset="1" stop-color="#003D86"/>
</linearGradient>
<linearGradient id="paint34_linear_338_285" x1="329.445" y1="570.701" x2="334.274" y2="306.332" gradientUnits="userSpaceOnUse">
<stop stop-color="#8D878A"/>
<stop offset="1" stop-color="#003D86"/>
</linearGradient>
<linearGradient id="paint35_linear_338_285" x1="330.051" y1="570.752" x2="334.881" y2="306.327" gradientUnits="userSpaceOnUse">
<stop stop-color="#8D878A"/>
<stop offset="1" stop-color="#003D86"/>
</linearGradient>
<linearGradient id="paint36_linear_338_285" x1="304.115" y1="570.24" x2="308.941" y2="305.868" gradientUnits="userSpaceOnUse">
<stop stop-color="#8D878A"/>
<stop offset="1" stop-color="#003D86"/>
</linearGradient>
<linearGradient id="paint37_linear_338_285" x1="330.789" y1="570.677" x2="335.619" y2="306.374" gradientUnits="userSpaceOnUse">
<stop stop-color="#8D878A"/>
<stop offset="1" stop-color="#003D86"/>
</linearGradient>
<linearGradient id="paint38_linear_338_285" x1="449.845" y1="572.924" x2="454.675" y2="308.523" gradientUnits="userSpaceOnUse">
<stop stop-color="#8D878A"/>
<stop offset="1" stop-color="#003D86"/>
</linearGradient>
<linearGradient id="paint39_linear_338_285" x1="453.003" y1="408.378" x2="454.369" y2="333.438" gradientUnits="userSpaceOnUse">
<stop stop-color="#8D878A"/>
<stop offset="1" stop-color="#003D86"/>
</linearGradient>
<linearGradient id="paint40_linear_338_285" x1="470.409" y1="573.123" x2="475.233" y2="308.937" gradientUnits="userSpaceOnUse">
<stop stop-color="#8D878A"/>
<stop offset="1" stop-color="#003D86"/>
</linearGradient>
<linearGradient id="paint41_linear_338_285" x1="478.094" y1="573.415" x2="482.922" y2="309.045" gradientUnits="userSpaceOnUse">
<stop stop-color="#8D878A"/>
<stop offset="1" stop-color="#003D86"/>
</linearGradient>
<linearGradient id="paint42_linear_338_285" x1="478.4" y1="573.407" x2="483.228" y2="309.053" gradientUnits="userSpaceOnUse">
<stop stop-color="#8D878A"/>
<stop offset="1" stop-color="#003D86"/>
</linearGradient>
<linearGradient id="paint43_linear_338_285" x1="471.479" y1="573.258" x2="476.307" y2="308.932" gradientUnits="userSpaceOnUse">
<stop stop-color="#8D878A"/>
<stop offset="1" stop-color="#003D86"/>
</linearGradient>
<linearGradient id="paint44_linear_338_285" x1="458.07" y1="573.06" x2="462.899" y2="308.677" gradientUnits="userSpaceOnUse">
<stop stop-color="#8D878A"/>
<stop offset="1" stop-color="#003D86"/>
</linearGradient>
<linearGradient id="paint45_linear_338_285" x1="461.955" y1="573.113" x2="466.783" y2="308.753" gradientUnits="userSpaceOnUse">
<stop stop-color="#8D878A"/>
<stop offset="1" stop-color="#003D86"/>
</linearGradient>
<linearGradient id="paint46_linear_338_285" x1="293.401" y1="568.065" x2="320.838" y2="348.574" gradientUnits="userSpaceOnUse">
<stop stop-color="#244679"/>
<stop offset="1" stop-color="#001945"/>
</linearGradient>
<linearGradient id="paint47_linear_338_285" x1="614.847" y1="571.888" x2="596.3" y2="402.645" gradientUnits="userSpaceOnUse">
<stop stop-color="#244679"/>
<stop offset="1" stop-color="#001945"/>
</linearGradient>
<linearGradient id="paint48_linear_338_285" x1="492.713" y1="585.276" x2="474.164" y2="416.029" gradientUnits="userSpaceOnUse">
<stop stop-color="#244679"/>
<stop offset="1" stop-color="#001945"/>
</linearGradient>
<linearGradient id="paint49_linear_338_285" x1="528.875" y1="581.305" x2="510.331" y2="412.067" gradientUnits="userSpaceOnUse">
<stop stop-color="#244679"/>
<stop offset="1" stop-color="#001945"/>
</linearGradient>
<linearGradient id="paint50_linear_338_285" x1="478.628" y1="586.767" x2="460.092" y2="417.592" gradientUnits="userSpaceOnUse">
<stop stop-color="#244679"/>
<stop offset="1" stop-color="#001945"/>
</linearGradient>
<linearGradient id="paint51_linear_338_285" x1="749.112" y1="557.913" x2="731.779" y2="399.988" gradientUnits="userSpaceOnUse">
<stop stop-color="#244679"/>
<stop offset="1" stop-color="#001945"/>
</linearGradient>
<linearGradient id="paint52_linear_338_285" x1="750.942" y1="556.93" x2="732.396" y2="387.725" gradientUnits="userSpaceOnUse">
<stop stop-color="#244679"/>
<stop offset="1" stop-color="#001945"/>
</linearGradient>
<linearGradient id="paint53_linear_338_285" x1="732.231" y1="559.02" x2="713.688" y2="389.78" gradientUnits="userSpaceOnUse">
<stop stop-color="#244679"/>
<stop offset="1" stop-color="#001945"/>
</linearGradient>
<linearGradient id="paint54_linear_338_285" x1="760.237" y1="555.992" x2="741.69" y2="386.716" gradientUnits="userSpaceOnUse">
<stop stop-color="#244679"/>
<stop offset="1" stop-color="#001945"/>
</linearGradient>
<linearGradient id="paint55_linear_338_285" x1="678.379" y1="564.949" x2="659.829" y2="395.686" gradientUnits="userSpaceOnUse">
<stop stop-color="#244679"/>
<stop offset="1" stop-color="#001945"/>
</linearGradient>
<linearGradient id="paint56_linear_338_285" x1="687.6" y1="563.878" x2="669.058" y2="394.668" gradientUnits="userSpaceOnUse">
<stop stop-color="#244679"/>
<stop offset="1" stop-color="#001945"/>
</linearGradient>
<linearGradient id="paint57_linear_338_285" x1="686.178" y1="564.027" x2="667.627" y2="394.823" gradientUnits="userSpaceOnUse">
<stop stop-color="#244679"/>
<stop offset="1" stop-color="#001945"/>
</linearGradient>
<linearGradient id="paint58_linear_338_285" x1="663.448" y1="566.563" x2="644.905" y2="397.318" gradientUnits="userSpaceOnUse">
<stop stop-color="#244679"/>
<stop offset="1" stop-color="#001945"/>
</linearGradient>
<linearGradient id="paint59_linear_338_285" x1="636.224" y1="569.504" x2="617.687" y2="400.303" gradientUnits="userSpaceOnUse">
<stop stop-color="#244679"/>
<stop offset="1" stop-color="#001945"/>
</linearGradient>
<linearGradient id="paint60_linear_338_285" x1="612.774" y1="572.14" x2="594.221" y2="402.87" gradientUnits="userSpaceOnUse">
<stop stop-color="#244679"/>
<stop offset="1" stop-color="#001945"/>
</linearGradient>
<linearGradient id="paint61_linear_338_285" x1="606.547" y1="572.797" x2="587.997" y2="403.555" gradientUnits="userSpaceOnUse">
<stop stop-color="#244679"/>
<stop offset="1" stop-color="#001945"/>
</linearGradient>
<linearGradient id="paint62_linear_338_285" x1="148.915" y1="642.164" x2="190.646" y2="418.438" gradientUnits="userSpaceOnUse">
<stop stop-color="#203E6B"/>
<stop offset="1" stop-color="#001437"/>
</linearGradient>
<linearGradient id="paint63_linear_338_285" x1="145.013" y1="641.462" x2="186.75" y2="417.712" gradientUnits="userSpaceOnUse">
<stop stop-color="#203E6B"/>
<stop offset="1" stop-color="#001437"/>
</linearGradient>
<linearGradient id="paint64_linear_338_285" x1="204.822" y1="652.591" x2="246.553" y2="428.866" gradientUnits="userSpaceOnUse">
<stop stop-color="#203E6B"/>
<stop offset="1" stop-color="#001437"/>
</linearGradient>
<linearGradient id="paint65_linear_338_285" x1="175.944" y1="647.212" x2="217.677" y2="423.48" gradientUnits="userSpaceOnUse">
<stop stop-color="#203E6B"/>
<stop offset="1" stop-color="#001437"/>
</linearGradient>
<linearGradient id="paint66_linear_338_285" x1="176.415" y1="647.242" x2="218.137" y2="423.565" gradientUnits="userSpaceOnUse">
<stop stop-color="#203E6B"/>
<stop offset="1" stop-color="#001437"/>
</linearGradient>
<linearGradient id="paint67_linear_338_285" x1="166.94" y1="645.555" x2="208.676" y2="421.802" gradientUnits="userSpaceOnUse">
<stop stop-color="#203E6B"/>
<stop offset="1" stop-color="#001437"/>
</linearGradient>
<linearGradient id="paint68_linear_338_285" x1="338.299" y1="250" x2="338.299" y2="215.154" gradientUnits="userSpaceOnUse">
<stop stop-color="#D9F1F8" stop-opacity="0"/>
<stop offset="0.1236" stop-color="#E6F6FA" stop-opacity="0.1236"/>
<stop offset="0.3328" stop-color="#F4FBFD" stop-opacity="0.3328"/>
<stop offset="0.586" stop-color="#FCFEFF" stop-opacity="0.586"/>
<stop offset="1" stop-color="white"/>
</linearGradient>
<clipPath id="clip0_338_285">
<rect width="750" height="500" fill="white"/>
</clipPath>
</defs>
</svg>
